<?xml version="1.0" encoding="utf-8" standalone="no"?>
<!DOCTYPE svg PUBLIC "-//W3C//DTD SVG 1.1//EN"
  "http://www.w3.org/Graphics/SVG/1.1/DTD/svg11.dtd">
<svg xmlns:xlink="http://www.w3.org/1999/xlink" width="291.8pt" height="193.431875pt" viewBox="0 0 291.8 193.431875" xmlns="http://www.w3.org/2000/svg" version="1.1">
 <metadata>
  <rdf:RDF xmlns:dc="http://purl.org/dc/elements/1.1/" xmlns:cc="http://creativecommons.org/ns#" xmlns:rdf="http://www.w3.org/1999/02/22-rdf-syntax-ns#">
   <cc:Work>
    <dc:type rdf:resource="http://purl.org/dc/dcmitype/StillImage"/>
    <dc:date>2025-08-31T20:02:25.230183</dc:date>
    <dc:format>image/svg+xml</dc:format>
    <dc:creator>
     <cc:Agent>
      <dc:title>Matplotlib v3.10.5, https://matplotlib.org/</dc:title>
     </cc:Agent>
    </dc:creator>
   </cc:Work>
  </rdf:RDF>
 </metadata>
 <defs>
  <style type="text/css">*{stroke-linejoin: round; stroke-linecap: butt}</style>
 </defs>
 <g id="figure_1">
  <g id="patch_1">
   <path d="M 0 193.431875 
L 291.8 193.431875 
L 291.8 0 
L 0 0 
L 0 193.431875 
z
" style="fill: none"/>
  </g>
  <g id="axes_1">
   <g id="patch_2">
    <path d="M 47 161.7 
L 284.6 161.7 
L 284.6 22.2 
L 47 22.2 
L 47 161.7 
z
" style="fill: none"/>
   </g>
   <g id="matplotlib.axis_1">
    <g id="xtick_1">
     <g id="line2d_1">
      <defs>
       <path id="ma7a4156cb9" d="M 0 0 
L 0 -3 
" style="stroke: #000000"/>
      </defs>
      <g>
       <use xlink:href="#ma7a4156cb9" x="57.8" y="161.7" style="stroke: #000000"/>
      </g>
     </g>
     <g id="line2d_2">
      <defs>
       <path id="mca95ef9546" d="M 0 0 
L 0 3 
" style="stroke: #000000"/>
      </defs>
      <g>
       <use xlink:href="#mca95ef9546" x="57.8" y="22.2" style="stroke: #000000"/>
      </g>
     </g>
     <g id="text_1">
      <!-- $\mathdefault{1940}$ -->
      <g transform="translate(47.8 169.639062) scale(0.1 -0.1)">
       <defs>
        <path id="Cmr10-31" d="M 594 0 
L 594 225 
Q 1394 225 1394 428 
L 1394 3788 
Q 1063 3628 556 3628 
L 556 3853 
Q 1341 3853 1741 4263 
L 1831 4263 
Q 1853 4263 1873 4245 
Q 1894 4228 1894 4206 
L 1894 428 
Q 1894 225 2694 225 
L 2694 0 
L 594 0 
z
" transform="scale(0.015625)"/>
        <path id="Cmr10-39" d="M 722 269 
Q 897 63 1331 63 
Q 1575 63 1786 228 
Q 1997 394 2113 634 
Q 2247 906 2284 1214 
Q 2322 1522 2322 1978 
Q 2213 1719 2008 1553 
Q 1803 1388 1538 1388 
Q 1166 1388 873 1589 
Q 581 1791 425 2120 
Q 269 2450 269 2822 
Q 269 3206 444 3539 
Q 619 3872 928 4067 
Q 1238 4263 1631 4263 
Q 2019 4263 2280 4052 
Q 2541 3841 2678 3508 
Q 2816 3175 2870 2803 
Q 2925 2431 2925 2069 
Q 2925 1575 2744 1061 
Q 2563 547 2202 203 
Q 1841 -141 1331 -141 
Q 953 -141 690 37 
Q 428 216 428 575 
Q 428 706 517 795 
Q 606 884 738 884 
Q 866 884 955 795 
Q 1044 706 1044 575 
Q 1044 450 953 359 
Q 863 269 738 269 
L 722 269 
z
M 1563 1556 
Q 1825 1556 1992 1732 
Q 2159 1909 2234 2171 
Q 2309 2434 2309 2694 
L 2309 2816 
L 2309 2841 
Q 2309 3322 2168 3700 
Q 2028 4078 1631 4078 
Q 1378 4078 1220 3967 
Q 1063 3856 988 3672 
Q 913 3488 892 3278 
Q 872 3069 872 2822 
Q 872 2459 906 2203 
Q 941 1947 1094 1751 
Q 1247 1556 1563 1556 
z
" transform="scale(0.015625)"/>
        <path id="Cmr10-34" d="M 178 1056 
L 178 1281 
L 2156 4231 
Q 2178 4263 2222 4263 
L 2316 4263 
Q 2388 4263 2388 4191 
L 2388 1281 
L 3016 1281 
L 3016 1056 
L 2388 1056 
L 2388 428 
Q 2388 297 2575 261 
Q 2763 225 3009 225 
L 3009 0 
L 1247 0 
L 1247 225 
Q 1494 225 1681 261 
Q 1869 297 1869 428 
L 1869 1056 
L 178 1056 
z
M 391 1281 
L 1906 1281 
L 1906 3547 
L 391 1281 
z
" transform="scale(0.015625)"/>
        <path id="Cmr10-30" d="M 1600 -141 
Q 816 -141 533 504 
Q 250 1150 250 2041 
Q 250 2597 351 3087 
Q 453 3578 754 3920 
Q 1056 4263 1600 4263 
Q 2022 4263 2290 4056 
Q 2559 3850 2700 3523 
Q 2841 3197 2892 2823 
Q 2944 2450 2944 2041 
Q 2944 1491 2842 1011 
Q 2741 531 2444 195 
Q 2147 -141 1600 -141 
z
M 1600 25 
Q 1956 25 2131 390 
Q 2306 756 2347 1200 
Q 2388 1644 2388 2144 
Q 2388 2625 2347 3031 
Q 2306 3438 2132 3767 
Q 1959 4097 1600 4097 
Q 1238 4097 1063 3765 
Q 888 3434 847 3029 
Q 806 2625 806 2144 
Q 806 1788 823 1472 
Q 841 1156 916 820 
Q 991 484 1158 254 
Q 1325 25 1600 25 
z
" transform="scale(0.015625)"/>
       </defs>
       <use xlink:href="#Cmr10-31" transform="translate(0 0.390625)"/>
       <use xlink:href="#Cmr10-39" transform="translate(50 0.390625)"/>
       <use xlink:href="#Cmr10-34" transform="translate(100 0.390625)"/>
       <use xlink:href="#Cmr10-30" transform="translate(150 0.390625)"/>
      </g>
     </g>
    </g>
    <g id="xtick_2">
     <g id="line2d_3">
      <g>
       <use xlink:href="#ma7a4156cb9" x="109.228571" y="161.7" style="stroke: #000000"/>
      </g>
     </g>
     <g id="line2d_4">
      <g>
       <use xlink:href="#mca95ef9546" x="109.228571" y="22.2" style="stroke: #000000"/>
      </g>
     </g>
     <g id="text_2">
      <!-- $\mathdefault{1960}$ -->
      <g transform="translate(99.228571 169.639062) scale(0.1 -0.1)">
       <defs>
        <path id="Cmr10-36" d="M 1600 -141 
Q 1203 -141 937 70 
Q 672 281 526 617 
Q 381 953 325 1322 
Q 269 1691 269 2069 
Q 269 2575 466 3084 
Q 663 3594 1045 3928 
Q 1428 4263 1953 4263 
Q 2172 4263 2361 4180 
Q 2550 4097 2658 3936 
Q 2766 3775 2766 3547 
Q 2766 3416 2677 3327 
Q 2588 3238 2456 3238 
Q 2331 3238 2240 3328 
Q 2150 3419 2150 3547 
Q 2150 3672 2240 3762 
Q 2331 3853 2456 3853 
L 2491 3853 
Q 2409 3969 2261 4023 
Q 2113 4078 1953 4078 
Q 1759 4078 1595 3993 
Q 1431 3909 1300 3765 
Q 1169 3622 1081 3448 
Q 994 3275 945 3053 
Q 897 2831 884 2637 
Q 872 2444 872 2150 
Q 984 2413 1190 2580 
Q 1397 2747 1656 2747 
Q 1941 2747 2175 2631 
Q 2409 2516 2578 2311 
Q 2747 2106 2836 1843 
Q 2925 1581 2925 1313 
Q 2925 938 2758 598 
Q 2591 259 2287 59 
Q 1984 -141 1600 -141 
z
M 1600 63 
Q 1847 63 1997 175 
Q 2147 288 2217 473 
Q 2288 659 2305 848 
Q 2322 1038 2322 1313 
Q 2322 1675 2287 1931 
Q 2253 2188 2100 2383 
Q 1947 2578 1631 2578 
Q 1372 2578 1205 2403 
Q 1038 2228 961 1961 
Q 884 1694 884 1447 
Q 884 1363 891 1319 
Q 891 1309 889 1303 
Q 888 1297 884 1288 
Q 884 1013 940 731 
Q 997 450 1156 256 
Q 1316 63 1600 63 
z
" transform="scale(0.015625)"/>
       </defs>
       <use xlink:href="#Cmr10-31" transform="translate(0 0.390625)"/>
       <use xlink:href="#Cmr10-39" transform="translate(50 0.390625)"/>
       <use xlink:href="#Cmr10-36" transform="translate(100 0.390625)"/>
       <use xlink:href="#Cmr10-30" transform="translate(150 0.390625)"/>
      </g>
     </g>
    </g>
    <g id="xtick_3">
     <g id="line2d_5">
      <g>
       <use xlink:href="#ma7a4156cb9" x="160.657143" y="161.7" style="stroke: #000000"/>
      </g>
     </g>
     <g id="line2d_6">
      <g>
       <use xlink:href="#mca95ef9546" x="160.657143" y="22.2" style="stroke: #000000"/>
      </g>
     </g>
     <g id="text_3">
      <!-- $\mathdefault{1980}$ -->
      <g transform="translate(150.657143 169.639062) scale(0.1 -0.1)">
       <defs>
        <path id="Cmr10-38" d="M 269 972 
Q 269 1356 522 1651 
Q 775 1947 1172 2144 
L 934 2297 
Q 716 2441 578 2680 
Q 441 2919 441 3181 
Q 441 3488 602 3734 
Q 763 3981 1030 4122 
Q 1297 4263 1600 4263 
Q 1884 4263 2148 4147 
Q 2413 4031 2583 3815 
Q 2753 3600 2753 3303 
Q 2753 3088 2651 2903 
Q 2550 2719 2373 2572 
Q 2197 2425 1997 2322 
L 2363 2088 
Q 2616 1922 2770 1653 
Q 2925 1384 2925 1088 
Q 2925 741 2739 456 
Q 2553 172 2247 15 
Q 1941 -141 1600 -141 
Q 1269 -141 961 -6 
Q 653 128 461 383 
Q 269 638 269 972 
z
M 616 972 
Q 616 719 755 509 
Q 894 300 1122 181 
Q 1350 63 1600 63 
Q 1972 63 2275 280 
Q 2578 497 2578 856 
Q 2578 978 2529 1098 
Q 2481 1219 2395 1317 
Q 2309 1416 2203 1478 
L 1344 2034 
Q 1144 1928 976 1765 
Q 809 1603 712 1400 
Q 616 1197 616 972 
z
M 1056 2925 
L 1831 2425 
Q 2100 2581 2272 2803 
Q 2444 3025 2444 3303 
Q 2444 3519 2323 3698 
Q 2203 3878 2009 3978 
Q 1816 4078 1594 4078 
Q 1400 4078 1203 4003 
Q 1006 3928 878 3779 
Q 750 3631 750 3431 
Q 750 3131 1056 2925 
z
" transform="scale(0.015625)"/>
       </defs>
       <use xlink:href="#Cmr10-31" transform="translate(0 0.390625)"/>
       <use xlink:href="#Cmr10-39" transform="translate(50 0.390625)"/>
       <use xlink:href="#Cmr10-38" transform="translate(100 0.390625)"/>
       <use xlink:href="#Cmr10-30" transform="translate(150 0.390625)"/>
      </g>
     </g>
    </g>
    <g id="xtick_4">
     <g id="line2d_7">
      <g>
       <use xlink:href="#ma7a4156cb9" x="212.085714" y="161.7" style="stroke: #000000"/>
      </g>
     </g>
     <g id="line2d_8">
      <g>
       <use xlink:href="#mca95ef9546" x="212.085714" y="22.2" style="stroke: #000000"/>
      </g>
     </g>
     <g id="text_4">
      <!-- $\mathdefault{2000}$ -->
      <g transform="translate(202.085714 169.639062) scale(0.1 -0.1)">
       <defs>
        <path id="Cmr10-32" d="M 319 0 
L 319 172 
Q 319 188 331 206 
L 1325 1306 
Q 1550 1550 1690 1715 
Q 1831 1881 1968 2097 
Q 2106 2313 2186 2536 
Q 2266 2759 2266 3009 
Q 2266 3272 2169 3511 
Q 2072 3750 1880 3894 
Q 1688 4038 1416 4038 
Q 1138 4038 916 3870 
Q 694 3703 603 3438 
Q 628 3444 672 3444 
Q 816 3444 917 3347 
Q 1019 3250 1019 3097 
Q 1019 2950 917 2848 
Q 816 2747 672 2747 
Q 522 2747 420 2851 
Q 319 2956 319 3097 
Q 319 3338 409 3548 
Q 500 3759 670 3923 
Q 841 4088 1055 4175 
Q 1269 4263 1509 4263 
Q 1875 4263 2190 4108 
Q 2506 3953 2690 3670 
Q 2875 3388 2875 3009 
Q 2875 2731 2753 2481 
Q 2631 2231 2440 2026 
Q 2250 1822 1953 1562 
Q 1656 1303 1563 1216 
L 838 519 
L 1453 519 
Q 1906 519 2211 526 
Q 2516 534 2534 550 
Q 2609 631 2688 1141 
L 2875 1141 
L 2694 0 
L 319 0 
z
" transform="scale(0.015625)"/>
       </defs>
       <use xlink:href="#Cmr10-32" transform="translate(0 0.390625)"/>
       <use xlink:href="#Cmr10-30" transform="translate(50 0.390625)"/>
       <use xlink:href="#Cmr10-30" transform="translate(100 0.390625)"/>
       <use xlink:href="#Cmr10-30" transform="translate(150 0.390625)"/>
      </g>
     </g>
    </g>
    <g id="xtick_5">
     <g id="line2d_9">
      <g>
       <use xlink:href="#ma7a4156cb9" x="263.514286" y="161.7" style="stroke: #000000"/>
      </g>
     </g>
     <g id="line2d_10">
      <g>
       <use xlink:href="#mca95ef9546" x="263.514286" y="22.2" style="stroke: #000000"/>
      </g>
     </g>
     <g id="text_5">
      <!-- $\mathdefault{2020}$ -->
      <g transform="translate(253.514286 169.639062) scale(0.1 -0.1)">
       <use xlink:href="#Cmr10-32" transform="translate(0 0.390625)"/>
       <use xlink:href="#Cmr10-30" transform="translate(50 0.390625)"/>
       <use xlink:href="#Cmr10-32" transform="translate(100 0.390625)"/>
       <use xlink:href="#Cmr10-30" transform="translate(150 0.390625)"/>
      </g>
     </g>
    </g>
    <g id="xtick_6">
     <g id="line2d_11">
      <defs>
       <path id="mb8e2a79de3" d="M 0 0 
L 0 -1 
" style="stroke: #000000"/>
      </defs>
      <g>
       <use xlink:href="#mb8e2a79de3" x="70.657143" y="161.7" style="stroke: #000000"/>
      </g>
     </g>
     <g id="line2d_12">
      <defs>
       <path id="m329d882508" d="M 0 0 
L 0 1 
" style="stroke: #000000"/>
      </defs>
      <g>
       <use xlink:href="#m329d882508" x="70.657143" y="22.2" style="stroke: #000000"/>
      </g>
     </g>
    </g>
    <g id="xtick_7">
     <g id="line2d_13">
      <g>
       <use xlink:href="#mb8e2a79de3" x="83.514286" y="161.7" style="stroke: #000000"/>
      </g>
     </g>
     <g id="line2d_14">
      <g>
       <use xlink:href="#m329d882508" x="83.514286" y="22.2" style="stroke: #000000"/>
      </g>
     </g>
    </g>
    <g id="xtick_8">
     <g id="line2d_15">
      <g>
       <use xlink:href="#mb8e2a79de3" x="96.371429" y="161.7" style="stroke: #000000"/>
      </g>
     </g>
     <g id="line2d_16">
      <g>
       <use xlink:href="#m329d882508" x="96.371429" y="22.2" style="stroke: #000000"/>
      </g>
     </g>
    </g>
    <g id="xtick_9">
     <g id="line2d_17">
      <g>
       <use xlink:href="#mb8e2a79de3" x="122.085714" y="161.7" style="stroke: #000000"/>
      </g>
     </g>
     <g id="line2d_18">
      <g>
       <use xlink:href="#m329d882508" x="122.085714" y="22.2" style="stroke: #000000"/>
      </g>
     </g>
    </g>
    <g id="xtick_10">
     <g id="line2d_19">
      <g>
       <use xlink:href="#mb8e2a79de3" x="134.942857" y="161.7" style="stroke: #000000"/>
      </g>
     </g>
     <g id="line2d_20">
      <g>
       <use xlink:href="#m329d882508" x="134.942857" y="22.2" style="stroke: #000000"/>
      </g>
     </g>
    </g>
    <g id="xtick_11">
     <g id="line2d_21">
      <g>
       <use xlink:href="#mb8e2a79de3" x="147.8" y="161.7" style="stroke: #000000"/>
      </g>
     </g>
     <g id="line2d_22">
      <g>
       <use xlink:href="#m329d882508" x="147.8" y="22.2" style="stroke: #000000"/>
      </g>
     </g>
    </g>
    <g id="xtick_12">
     <g id="line2d_23">
      <g>
       <use xlink:href="#mb8e2a79de3" x="173.514286" y="161.7" style="stroke: #000000"/>
      </g>
     </g>
     <g id="line2d_24">
      <g>
       <use xlink:href="#m329d882508" x="173.514286" y="22.2" style="stroke: #000000"/>
      </g>
     </g>
    </g>
    <g id="xtick_13">
     <g id="line2d_25">
      <g>
       <use xlink:href="#mb8e2a79de3" x="186.371429" y="161.7" style="stroke: #000000"/>
      </g>
     </g>
     <g id="line2d_26">
      <g>
       <use xlink:href="#m329d882508" x="186.371429" y="22.2" style="stroke: #000000"/>
      </g>
     </g>
    </g>
    <g id="xtick_14">
     <g id="line2d_27">
      <g>
       <use xlink:href="#mb8e2a79de3" x="199.228571" y="161.7" style="stroke: #000000"/>
      </g>
     </g>
     <g id="line2d_28">
      <g>
       <use xlink:href="#m329d882508" x="199.228571" y="22.2" style="stroke: #000000"/>
      </g>
     </g>
    </g>
    <g id="xtick_15">
     <g id="line2d_29">
      <g>
       <use xlink:href="#mb8e2a79de3" x="224.942857" y="161.7" style="stroke: #000000"/>
      </g>
     </g>
     <g id="line2d_30">
      <g>
       <use xlink:href="#m329d882508" x="224.942857" y="22.2" style="stroke: #000000"/>
      </g>
     </g>
    </g>
    <g id="xtick_16">
     <g id="line2d_31">
      <g>
       <use xlink:href="#mb8e2a79de3" x="237.8" y="161.7" style="stroke: #000000"/>
      </g>
     </g>
     <g id="line2d_32">
      <g>
       <use xlink:href="#m329d882508" x="237.8" y="22.2" style="stroke: #000000"/>
      </g>
     </g>
    </g>
    <g id="xtick_17">
     <g id="line2d_33">
      <g>
       <use xlink:href="#mb8e2a79de3" x="250.657143" y="161.7" style="stroke: #000000"/>
      </g>
     </g>
     <g id="line2d_34">
      <g>
       <use xlink:href="#m329d882508" x="250.657143" y="22.2" style="stroke: #000000"/>
      </g>
     </g>
    </g>
    <g id="xtick_18">
     <g id="line2d_35">
      <g>
       <use xlink:href="#mb8e2a79de3" x="276.371429" y="161.7" style="stroke: #000000"/>
      </g>
     </g>
     <g id="line2d_36">
      <g>
       <use xlink:href="#m329d882508" x="276.371429" y="22.2" style="stroke: #000000"/>
      </g>
     </g>
    </g>
    <g id="text_6">
     <!-- Year -->
     <g transform="translate(153.29 183.905) scale(0.12 -0.12)">
      <defs>
       <path id="Cmr10-59" d="M 1447 0 
L 1447 225 
Q 2106 225 2106 428 
L 2106 1747 
L 763 3956 
Q 669 4084 500 4115 
Q 331 4147 72 4147 
L 72 4372 
L 1875 4372 
L 1875 4147 
Q 1428 4147 1428 4000 
Q 1428 3988 1441 3950 
L 2597 2041 
L 3653 3775 
Q 3694 3834 3694 3903 
Q 3694 4031 3583 4089 
Q 3472 4147 3334 4147 
L 3334 4372 
L 4722 4372 
L 4722 4147 
Q 4472 4147 4258 4058 
Q 4044 3969 3922 3781 
L 2681 1747 
L 2681 428 
Q 2681 225 3341 225 
L 3341 0 
L 1447 0 
z
" transform="scale(0.015625)"/>
       <path id="Cmr10-65" d="M 1594 -72 
Q 1203 -72 876 133 
Q 550 338 364 680 
Q 178 1022 178 1403 
Q 178 1778 348 2115 
Q 519 2453 823 2661 
Q 1128 2869 1503 2869 
Q 1797 2869 2014 2770 
Q 2231 2672 2372 2497 
Q 2513 2322 2584 2084 
Q 2656 1847 2656 1563 
Q 2656 1478 2591 1478 
L 738 1478 
L 738 1409 
Q 738 878 952 497 
Q 1166 116 1650 116 
Q 1847 116 2014 203 
Q 2181 291 2304 447 
Q 2428 603 2472 781 
Q 2478 803 2495 820 
Q 2513 838 2534 838 
L 2591 838 
Q 2656 838 2656 756 
Q 2566 394 2266 161 
Q 1966 -72 1594 -72 
z
M 744 1638 
L 2203 1638 
Q 2203 1878 2136 2125 
Q 2069 2372 1912 2536 
Q 1756 2700 1503 2700 
Q 1141 2700 942 2361 
Q 744 2022 744 1638 
z
" transform="scale(0.015625)"/>
       <path id="Cmr10-61" d="M 256 628 
Q 256 1009 556 1248 
Q 856 1488 1276 1586 
Q 1697 1684 2075 1684 
L 2075 1947 
Q 2075 2131 1994 2304 
Q 1913 2478 1759 2589 
Q 1606 2700 1422 2700 
Q 997 2700 775 2509 
Q 897 2509 976 2417 
Q 1056 2325 1056 2203 
Q 1056 2075 965 1984 
Q 875 1894 750 1894 
Q 622 1894 531 1984 
Q 441 2075 441 2203 
Q 441 2541 747 2705 
Q 1053 2869 1422 2869 
Q 1681 2869 1943 2758 
Q 2206 2647 2373 2440 
Q 2541 2234 2541 1959 
L 2541 519 
Q 2541 394 2594 289 
Q 2647 184 2759 184 
Q 2866 184 2917 290 
Q 2969 397 2969 519 
L 2969 928 
L 3156 928 
L 3156 519 
Q 3156 375 3081 245 
Q 3006 116 2879 39 
Q 2753 -38 2606 -38 
Q 2419 -38 2283 107 
Q 2147 253 2131 453 
Q 2013 213 1781 70 
Q 1550 -72 1288 -72 
Q 1044 -72 808 0 
Q 572 72 414 226 
Q 256 381 256 628 
z
M 775 628 
Q 775 403 940 250 
Q 1106 97 1331 97 
Q 1538 97 1706 200 
Q 1875 303 1975 481 
Q 2075 659 2075 856 
L 2075 1522 
Q 1784 1522 1479 1426 
Q 1175 1331 975 1128 
Q 775 925 775 628 
z
" transform="scale(0.015625)"/>
       <path id="Cmr10-72" d="M 166 0 
L 166 225 
Q 384 225 525 259 
Q 666 294 666 428 
L 666 2175 
Q 666 2347 614 2423 
Q 563 2500 466 2517 
Q 369 2534 166 2534 
L 166 2759 
L 1081 2828 
L 1081 2203 
Q 1184 2481 1375 2654 
Q 1566 2828 1838 2828 
Q 2028 2828 2178 2715 
Q 2328 2603 2328 2419 
Q 2328 2303 2245 2217 
Q 2163 2131 2041 2131 
Q 1922 2131 1837 2215 
Q 1753 2300 1753 2419 
Q 1753 2591 1875 2663 
L 1838 2663 
Q 1578 2663 1414 2475 
Q 1250 2288 1181 2009 
Q 1113 1731 1113 1478 
L 1113 428 
Q 1113 225 1734 225 
L 1734 0 
L 166 0 
z
" transform="scale(0.015625)"/>
      </defs>
      <use xlink:href="#Cmr10-59"/>
      <use xlink:href="#Cmr10-65" transform="translate(75 0)"/>
      <use xlink:href="#Cmr10-61" transform="translate(119.384766 0)"/>
      <use xlink:href="#Cmr10-72" transform="translate(169.384766 0)"/>
     </g>
    </g>
   </g>
   <g id="matplotlib.axis_2">
    <g id="ytick_1">
     <g id="line2d_37">
      <defs>
       <path id="mce93963f2c" d="M 0 0 
L 3 0 
" style="stroke: #000000"/>
      </defs>
      <g>
       <use xlink:href="#mce93963f2c" x="47" y="146.224725" style="stroke: #000000"/>
      </g>
     </g>
     <g id="line2d_38">
      <defs>
       <path id="m510ce5b92e" d="M 0 0 
L -3 0 
" style="stroke: #000000"/>
      </defs>
      <g>
       <use xlink:href="#m510ce5b92e" x="284.6" y="146.224725" style="stroke: #000000"/>
      </g>
     </g>
     <g id="text_7">
      <!-- $\mathdefault{277.5}$ -->
      <g transform="translate(23.2 149.694256) scale(0.1 -0.1)">
       <defs>
        <path id="Cmr10-37" d="M 1113 166 
Q 1113 522 1175 862 
Q 1238 1203 1358 1536 
Q 1478 1869 1648 2189 
Q 1819 2509 2022 2791 
L 2606 3603 
L 1875 3603 
Q 738 3603 703 3572 
Q 619 3469 544 2981 
L 359 2981 
L 569 4325 
L 756 4325 
L 756 4306 
Q 756 4191 1147 4156 
Q 1538 4122 1913 4122 
L 3103 4122 
L 3103 3956 
Q 3103 3950 3101 3947 
Q 3100 3944 3097 3938 
L 2216 2700 
Q 1891 2219 1809 1631 
Q 1728 1044 1728 166 
Q 1728 41 1637 -50 
Q 1547 -141 1422 -141 
Q 1294 -141 1203 -50 
Q 1113 41 1113 166 
z
" transform="scale(0.015625)"/>
        <path id="Cmr10-2e" d="M 538 353 
Q 538 497 644 600 
Q 750 703 891 703 
Q 978 703 1062 656 
Q 1147 609 1194 525 
Q 1241 441 1241 353 
Q 1241 213 1137 106 
Q 1034 0 891 0 
Q 750 0 644 106 
Q 538 213 538 353 
z
" transform="scale(0.015625)"/>
        <path id="Cmr10-35" d="M 556 728 
Q 622 541 758 387 
Q 894 234 1080 148 
Q 1266 63 1466 63 
Q 1928 63 2103 422 
Q 2278 781 2278 1294 
Q 2278 1516 2270 1667 
Q 2263 1819 2228 1959 
Q 2169 2184 2020 2353 
Q 1872 2522 1656 2522 
Q 1441 2522 1286 2456 
Q 1131 2391 1034 2303 
Q 938 2216 863 2119 
Q 788 2022 769 2016 
L 697 2016 
Q 681 2016 657 2036 
Q 634 2056 634 2075 
L 634 4213 
Q 634 4228 654 4245 
Q 675 4263 697 4263 
L 716 4263 
Q 1147 4056 1631 4056 
Q 2106 4056 2547 4263 
L 2566 4263 
Q 2588 4263 2606 4247 
Q 2625 4231 2625 4213 
L 2625 4153 
Q 2625 4122 2613 4122 
Q 2394 3831 2064 3668 
Q 1734 3506 1381 3506 
Q 1125 3506 856 3578 
L 856 2369 
Q 1069 2541 1236 2614 
Q 1403 2688 1663 2688 
Q 2016 2688 2295 2484 
Q 2575 2281 2725 1954 
Q 2875 1628 2875 1288 
Q 2875 903 2686 575 
Q 2497 247 2172 53 
Q 1847 -141 1466 -141 
Q 1150 -141 886 21 
Q 622 184 470 459 
Q 319 734 319 1044 
Q 319 1188 412 1278 
Q 506 1369 647 1369 
Q 788 1369 883 1276 
Q 978 1184 978 1044 
Q 978 906 883 811 
Q 788 716 647 716 
Q 625 716 597 720 
Q 569 725 556 728 
z
" transform="scale(0.015625)"/>
       </defs>
       <use xlink:href="#Cmr10-32" transform="translate(0 0.421875)"/>
       <use xlink:href="#Cmr10-37" transform="translate(50 0.421875)"/>
       <use xlink:href="#Cmr10-37" transform="translate(100 0.421875)"/>
       <use xlink:href="#Cmr10-2e" transform="translate(150 0.421875)"/>
       <use xlink:href="#Cmr10-35" transform="translate(177.685547 0.421875)"/>
      </g>
     </g>
    </g>
    <g id="ytick_2">
     <g id="line2d_39">
      <g>
       <use xlink:href="#mce93963f2c" x="47" y="117.725286" style="stroke: #000000"/>
      </g>
     </g>
     <g id="line2d_40">
      <g>
       <use xlink:href="#m510ce5b92e" x="284.6" y="117.725286" style="stroke: #000000"/>
      </g>
     </g>
     <g id="text_8">
      <!-- $\mathdefault{278.0}$ -->
      <g transform="translate(23.2 121.194818) scale(0.1 -0.1)">
       <use xlink:href="#Cmr10-32" transform="translate(0 0.421875)"/>
       <use xlink:href="#Cmr10-37" transform="translate(50 0.421875)"/>
       <use xlink:href="#Cmr10-38" transform="translate(100 0.421875)"/>
       <use xlink:href="#Cmr10-2e" transform="translate(150 0.421875)"/>
       <use xlink:href="#Cmr10-30" transform="translate(177.685547 0.421875)"/>
      </g>
     </g>
    </g>
    <g id="ytick_3">
     <g id="line2d_41">
      <g>
       <use xlink:href="#mce93963f2c" x="47" y="89.225847" style="stroke: #000000"/>
      </g>
     </g>
     <g id="line2d_42">
      <g>
       <use xlink:href="#m510ce5b92e" x="284.6" y="89.225847" style="stroke: #000000"/>
      </g>
     </g>
     <g id="text_9">
      <!-- $\mathdefault{278.5}$ -->
      <g transform="translate(23.2 92.695379) scale(0.1 -0.1)">
       <use xlink:href="#Cmr10-32" transform="translate(0 0.421875)"/>
       <use xlink:href="#Cmr10-37" transform="translate(50 0.421875)"/>
       <use xlink:href="#Cmr10-38" transform="translate(100 0.421875)"/>
       <use xlink:href="#Cmr10-2e" transform="translate(150 0.421875)"/>
       <use xlink:href="#Cmr10-35" transform="translate(177.685547 0.421875)"/>
      </g>
     </g>
    </g>
    <g id="ytick_4">
     <g id="line2d_43">
      <g>
       <use xlink:href="#mce93963f2c" x="47" y="60.726409" style="stroke: #000000"/>
      </g>
     </g>
     <g id="line2d_44">
      <g>
       <use xlink:href="#m510ce5b92e" x="284.6" y="60.726409" style="stroke: #000000"/>
      </g>
     </g>
     <g id="text_10">
      <!-- $\mathdefault{279.0}$ -->
      <g transform="translate(23.2 64.19594) scale(0.1 -0.1)">
       <use xlink:href="#Cmr10-32" transform="translate(0 0.421875)"/>
       <use xlink:href="#Cmr10-37" transform="translate(50 0.421875)"/>
       <use xlink:href="#Cmr10-39" transform="translate(100 0.421875)"/>
       <use xlink:href="#Cmr10-2e" transform="translate(150 0.421875)"/>
       <use xlink:href="#Cmr10-30" transform="translate(177.685547 0.421875)"/>
      </g>
     </g>
    </g>
    <g id="ytick_5">
     <g id="line2d_45">
      <g>
       <use xlink:href="#mce93963f2c" x="47" y="32.22697" style="stroke: #000000"/>
      </g>
     </g>
     <g id="line2d_46">
      <g>
       <use xlink:href="#m510ce5b92e" x="284.6" y="32.22697" style="stroke: #000000"/>
      </g>
     </g>
     <g id="text_11">
      <!-- $\mathdefault{279.5}$ -->
      <g transform="translate(23.2 35.696501) scale(0.1 -0.1)">
       <use xlink:href="#Cmr10-32" transform="translate(0 0.421875)"/>
       <use xlink:href="#Cmr10-37" transform="translate(50 0.421875)"/>
       <use xlink:href="#Cmr10-39" transform="translate(100 0.421875)"/>
       <use xlink:href="#Cmr10-2e" transform="translate(150 0.421875)"/>
       <use xlink:href="#Cmr10-35" transform="translate(177.685547 0.421875)"/>
      </g>
     </g>
    </g>
    <g id="ytick_6">
     <g id="line2d_47">
      <defs>
       <path id="mab2e55817f" d="M 0 0 
L 1 0 
" style="stroke: #000000"/>
      </defs>
      <g>
       <use xlink:href="#mab2e55817f" x="47" y="157.624501" style="stroke: #000000"/>
      </g>
     </g>
     <g id="line2d_48">
      <defs>
       <path id="m4284193ccc" d="M 0 0 
L -1 0 
" style="stroke: #000000"/>
      </defs>
      <g>
       <use xlink:href="#m4284193ccc" x="284.6" y="157.624501" style="stroke: #000000"/>
      </g>
     </g>
    </g>
    <g id="ytick_7">
     <g id="line2d_49">
      <g>
       <use xlink:href="#mab2e55817f" x="47" y="151.924613" style="stroke: #000000"/>
      </g>
     </g>
     <g id="line2d_50">
      <g>
       <use xlink:href="#m4284193ccc" x="284.6" y="151.924613" style="stroke: #000000"/>
      </g>
     </g>
    </g>
    <g id="ytick_8">
     <g id="line2d_51">
      <g>
       <use xlink:href="#mab2e55817f" x="47" y="140.524837" style="stroke: #000000"/>
      </g>
     </g>
     <g id="line2d_52">
      <g>
       <use xlink:href="#m4284193ccc" x="284.6" y="140.524837" style="stroke: #000000"/>
      </g>
     </g>
    </g>
    <g id="ytick_9">
     <g id="line2d_53">
      <g>
       <use xlink:href="#mab2e55817f" x="47" y="134.82495" style="stroke: #000000"/>
      </g>
     </g>
     <g id="line2d_54">
      <g>
       <use xlink:href="#m4284193ccc" x="284.6" y="134.82495" style="stroke: #000000"/>
      </g>
     </g>
    </g>
    <g id="ytick_10">
     <g id="line2d_55">
      <g>
       <use xlink:href="#mab2e55817f" x="47" y="129.125062" style="stroke: #000000"/>
      </g>
     </g>
     <g id="line2d_56">
      <g>
       <use xlink:href="#m4284193ccc" x="284.6" y="129.125062" style="stroke: #000000"/>
      </g>
     </g>
    </g>
    <g id="ytick_11">
     <g id="line2d_57">
      <g>
       <use xlink:href="#mab2e55817f" x="47" y="123.425174" style="stroke: #000000"/>
      </g>
     </g>
     <g id="line2d_58">
      <g>
       <use xlink:href="#m4284193ccc" x="284.6" y="123.425174" style="stroke: #000000"/>
      </g>
     </g>
    </g>
    <g id="ytick_12">
     <g id="line2d_59">
      <g>
       <use xlink:href="#mab2e55817f" x="47" y="112.025399" style="stroke: #000000"/>
      </g>
     </g>
     <g id="line2d_60">
      <g>
       <use xlink:href="#m4284193ccc" x="284.6" y="112.025399" style="stroke: #000000"/>
      </g>
     </g>
    </g>
    <g id="ytick_13">
     <g id="line2d_61">
      <g>
       <use xlink:href="#mab2e55817f" x="47" y="106.325511" style="stroke: #000000"/>
      </g>
     </g>
     <g id="line2d_62">
      <g>
       <use xlink:href="#m4284193ccc" x="284.6" y="106.325511" style="stroke: #000000"/>
      </g>
     </g>
    </g>
    <g id="ytick_14">
     <g id="line2d_63">
      <g>
       <use xlink:href="#mab2e55817f" x="47" y="100.625623" style="stroke: #000000"/>
      </g>
     </g>
     <g id="line2d_64">
      <g>
       <use xlink:href="#m4284193ccc" x="284.6" y="100.625623" style="stroke: #000000"/>
      </g>
     </g>
    </g>
    <g id="ytick_15">
     <g id="line2d_65">
      <g>
       <use xlink:href="#mab2e55817f" x="47" y="94.925735" style="stroke: #000000"/>
      </g>
     </g>
     <g id="line2d_66">
      <g>
       <use xlink:href="#m4284193ccc" x="284.6" y="94.925735" style="stroke: #000000"/>
      </g>
     </g>
    </g>
    <g id="ytick_16">
     <g id="line2d_67">
      <g>
       <use xlink:href="#mab2e55817f" x="47" y="83.52596" style="stroke: #000000"/>
      </g>
     </g>
     <g id="line2d_68">
      <g>
       <use xlink:href="#m4284193ccc" x="284.6" y="83.52596" style="stroke: #000000"/>
      </g>
     </g>
    </g>
    <g id="ytick_17">
     <g id="line2d_69">
      <g>
       <use xlink:href="#mab2e55817f" x="47" y="77.826072" style="stroke: #000000"/>
      </g>
     </g>
     <g id="line2d_70">
      <g>
       <use xlink:href="#m4284193ccc" x="284.6" y="77.826072" style="stroke: #000000"/>
      </g>
     </g>
    </g>
    <g id="ytick_18">
     <g id="line2d_71">
      <g>
       <use xlink:href="#mab2e55817f" x="47" y="72.126184" style="stroke: #000000"/>
      </g>
     </g>
     <g id="line2d_72">
      <g>
       <use xlink:href="#m4284193ccc" x="284.6" y="72.126184" style="stroke: #000000"/>
      </g>
     </g>
    </g>
    <g id="ytick_19">
     <g id="line2d_73">
      <g>
       <use xlink:href="#mab2e55817f" x="47" y="66.426296" style="stroke: #000000"/>
      </g>
     </g>
     <g id="line2d_74">
      <g>
       <use xlink:href="#m4284193ccc" x="284.6" y="66.426296" style="stroke: #000000"/>
      </g>
     </g>
    </g>
    <g id="ytick_20">
     <g id="line2d_75">
      <g>
       <use xlink:href="#mab2e55817f" x="47" y="55.026521" style="stroke: #000000"/>
      </g>
     </g>
     <g id="line2d_76">
      <g>
       <use xlink:href="#m4284193ccc" x="284.6" y="55.026521" style="stroke: #000000"/>
      </g>
     </g>
    </g>
    <g id="ytick_21">
     <g id="line2d_77">
      <g>
       <use xlink:href="#mab2e55817f" x="47" y="49.326633" style="stroke: #000000"/>
      </g>
     </g>
     <g id="line2d_78">
      <g>
       <use xlink:href="#m4284193ccc" x="284.6" y="49.326633" style="stroke: #000000"/>
      </g>
     </g>
    </g>
    <g id="ytick_22">
     <g id="line2d_79">
      <g>
       <use xlink:href="#mab2e55817f" x="47" y="43.626745" style="stroke: #000000"/>
      </g>
     </g>
     <g id="line2d_80">
      <g>
       <use xlink:href="#m4284193ccc" x="284.6" y="43.626745" style="stroke: #000000"/>
      </g>
     </g>
    </g>
    <g id="ytick_23">
     <g id="line2d_81">
      <g>
       <use xlink:href="#mab2e55817f" x="47" y="37.926858" style="stroke: #000000"/>
      </g>
     </g>
     <g id="line2d_82">
      <g>
       <use xlink:href="#m4284193ccc" x="284.6" y="37.926858" style="stroke: #000000"/>
      </g>
     </g>
    </g>
    <g id="ytick_24">
     <g id="line2d_83">
      <g>
       <use xlink:href="#mab2e55817f" x="47" y="26.527082" style="stroke: #000000"/>
      </g>
     </g>
     <g id="line2d_84">
      <g>
       <use xlink:href="#m4284193ccc" x="284.6" y="26.527082" style="stroke: #000000"/>
      </g>
     </g>
    </g>
    <g id="text_12">
     <!-- Average Temperature (K) -->
     <g transform="translate(16.2 160.604062) rotate(-90) scale(0.12 -0.12)">
      <defs>
       <path id="Cmr10-41" d="M 206 0 
L 206 225 
Q 778 225 909 603 
L 2253 4513 
Q 2272 4581 2356 4581 
L 2438 4581 
Q 2522 4581 2541 4513 
L 3944 428 
Q 4003 294 4170 259 
Q 4338 225 4588 225 
L 4588 0 
L 2803 0 
L 2803 225 
Q 3334 225 3334 397 
L 3334 428 
L 2988 1428 
L 1434 1428 
L 1147 603 
Q 1141 581 1141 538 
Q 1141 378 1292 301 
Q 1444 225 1619 225 
L 1619 0 
L 206 0 
z
M 1509 1650 
L 2913 1650 
L 2209 3694 
L 1509 1650 
z
" transform="scale(0.015625)"/>
       <path id="Cmr10-76" d="M 1563 0 
L 628 2350 
Q 569 2469 445 2501 
Q 322 2534 122 2534 
L 122 2759 
L 1466 2759 
L 1466 2534 
Q 1106 2534 1106 2381 
Q 1106 2356 1113 2344 
L 1831 538 
L 2478 2169 
Q 2497 2219 2497 2272 
Q 2497 2394 2405 2464 
Q 2313 2534 2188 2534 
L 2188 2759 
L 3250 2759 
L 3250 2534 
Q 3053 2534 2904 2443 
Q 2756 2353 2675 2175 
L 1813 0 
Q 1788 -72 1709 -72 
L 1663 -72 
Q 1584 -72 1563 0 
z
" transform="scale(0.015625)"/>
       <path id="Cmr10-67" d="M 178 -500 
Q 178 -272 343 -101 
Q 509 69 738 141 
Q 609 238 542 384 
Q 475 531 475 697 
Q 475 997 666 1228 
Q 372 1516 372 1888 
Q 372 2088 458 2263 
Q 544 2438 697 2566 
Q 850 2694 1037 2761 
Q 1225 2828 1422 2828 
Q 1803 2828 2106 2606 
Q 2238 2747 2417 2823 
Q 2597 2900 2791 2900 
Q 2928 2900 3015 2801 
Q 3103 2703 3103 2566 
Q 3103 2488 3043 2428 
Q 2984 2369 2906 2369 
Q 2825 2369 2765 2428 
Q 2706 2488 2706 2566 
Q 2706 2684 2784 2731 
Q 2453 2731 2216 2503 
Q 2331 2388 2401 2220 
Q 2472 2053 2472 1888 
Q 2472 1616 2322 1398 
Q 2172 1181 1926 1061 
Q 1681 941 1422 941 
Q 1072 941 781 1131 
Q 691 1006 691 850 
Q 691 681 802 554 
Q 913 428 1081 428 
L 1606 428 
Q 1988 428 2294 359 
Q 2600 291 2808 84 
Q 3016 -122 3016 -500 
Q 3016 -781 2778 -967 
Q 2541 -1153 2211 -1236 
Q 1881 -1319 1600 -1319 
Q 1316 -1319 984 -1236 
Q 653 -1153 415 -967 
Q 178 -781 178 -500 
z
M 538 -500 
Q 538 -716 713 -861 
Q 888 -1006 1134 -1076 
Q 1381 -1147 1600 -1147 
Q 1816 -1147 2062 -1076 
Q 2309 -1006 2482 -861 
Q 2656 -716 2656 -500 
Q 2656 -166 2350 -67 
Q 2044 31 1606 31 
L 1081 31 
Q 934 31 811 -39 
Q 688 -109 613 -236 
Q 538 -363 538 -500 
z
M 1422 1113 
Q 1966 1113 1966 1888 
Q 1966 2222 1850 2439 
Q 1734 2656 1422 2656 
Q 1109 2656 993 2439 
Q 878 2222 878 1888 
Q 878 1675 922 1503 
Q 966 1331 1084 1222 
Q 1203 1113 1422 1113 
z
" transform="scale(0.015625)"/>
       <path id="Cmr10-20" transform="scale(0.015625)"/>
       <path id="Cmr10-54" d="M 1081 0 
L 1081 225 
Q 1403 225 1706 261 
Q 2009 297 2009 428 
L 2009 3944 
Q 2009 4081 1932 4114 
Q 1856 4147 1684 4147 
L 1416 4147 
Q 888 4147 666 3916 
Q 550 3800 500 3545 
Q 450 3291 416 2906 
L 231 2906 
L 353 4372 
L 4263 4372 
L 4384 2906 
L 4197 2906 
Q 4159 3319 4114 3561 
Q 4069 3803 3950 3916 
Q 3725 4147 3200 4147 
L 2931 4147 
Q 2816 4147 2752 4137 
Q 2688 4128 2647 4083 
Q 2606 4038 2606 3944 
L 2606 428 
Q 2606 297 2909 261 
Q 3213 225 3531 225 
L 3531 0 
L 1081 0 
z
" transform="scale(0.015625)"/>
       <path id="Cmr10-6d" d="M 191 0 
L 191 225 
Q 409 225 550 259 
Q 691 294 691 428 
L 691 2175 
Q 691 2347 639 2423 
Q 588 2500 491 2517 
Q 394 2534 191 2534 
L 191 2759 
L 1119 2828 
L 1119 2203 
Q 1247 2478 1498 2653 
Q 1750 2828 2047 2828 
Q 2784 2828 2913 2228 
Q 3041 2497 3287 2662 
Q 3534 2828 3828 2828 
Q 4119 2828 4317 2734 
Q 4516 2641 4616 2448 
Q 4716 2256 4716 1966 
L 4716 428 
Q 4716 294 4858 259 
Q 5000 225 5216 225 
L 5216 0 
L 3750 0 
L 3750 225 
Q 3969 225 4109 259 
Q 4250 294 4250 428 
L 4250 1947 
Q 4250 2269 4159 2466 
Q 4069 2663 3788 2663 
Q 3419 2663 3178 2366 
Q 2938 2069 2938 1691 
L 2938 428 
Q 2938 294 3078 259 
Q 3219 225 3438 225 
L 3438 0 
L 1972 0 
L 1972 225 
Q 2191 225 2331 259 
Q 2472 294 2472 428 
L 2472 1947 
Q 2472 2259 2381 2461 
Q 2291 2663 2009 2663 
Q 1638 2663 1398 2366 
Q 1159 2069 1159 1691 
L 1159 428 
Q 1159 294 1300 259 
Q 1441 225 1656 225 
L 1656 0 
L 191 0 
z
" transform="scale(0.015625)"/>
       <path id="Cmr10-70" d="M 166 -1241 
L 166 -1019 
Q 384 -1019 525 -981 
Q 666 -944 666 -813 
L 666 2272 
Q 666 2447 541 2490 
Q 416 2534 166 2534 
L 166 2759 
L 1113 2828 
L 1113 2431 
Q 1288 2625 1520 2726 
Q 1753 2828 2016 2828 
Q 2394 2828 2697 2623 
Q 3000 2419 3170 2086 
Q 3341 1753 3341 1381 
Q 3341 994 3152 659 
Q 2963 325 2636 126 
Q 2309 -72 1919 -72 
Q 1453 -72 1131 306 
L 1131 -813 
Q 1131 -944 1273 -981 
Q 1416 -1019 1631 -1019 
L 1631 -1241 
L 166 -1241 
z
M 1131 622 
Q 1244 394 1444 245 
Q 1644 97 1881 97 
Q 2103 97 2273 215 
Q 2444 334 2559 534 
Q 2675 734 2729 954 
Q 2784 1175 2784 1381 
Q 2784 1638 2692 1936 
Q 2600 2234 2411 2439 
Q 2222 2644 1953 2644 
Q 1694 2644 1476 2511 
Q 1259 2378 1131 2150 
L 1131 622 
z
" transform="scale(0.015625)"/>
       <path id="Cmr10-74" d="M 653 769 
L 653 2534 
L 122 2534 
L 122 2700 
Q 541 2700 737 3090 
Q 934 3481 934 3938 
L 1119 3938 
L 1119 2759 
L 2022 2759 
L 2022 2534 
L 1119 2534 
L 1119 781 
Q 1119 516 1208 316 
Q 1297 116 1528 116 
Q 1747 116 1844 327 
Q 1941 538 1941 781 
L 1941 1159 
L 2125 1159 
L 2125 769 
Q 2125 569 2051 373 
Q 1978 178 1834 53 
Q 1691 -72 1484 -72 
Q 1100 -72 876 158 
Q 653 388 653 769 
z
" transform="scale(0.015625)"/>
       <path id="Cmr10-75" d="M 691 763 
L 691 2175 
Q 691 2347 639 2423 
Q 588 2500 491 2517 
Q 394 2534 191 2534 
L 191 2759 
L 1159 2828 
L 1159 763 
Q 1159 513 1195 373 
Q 1231 234 1348 165 
Q 1466 97 1722 97 
Q 2066 97 2269 384 
Q 2472 672 2472 1038 
L 2472 2175 
Q 2472 2347 2419 2423 
Q 2366 2500 2270 2517 
Q 2175 2534 1972 2534 
L 1972 2759 
L 2938 2828 
L 2938 581 
Q 2938 413 2989 336 
Q 3041 259 3137 242 
Q 3234 225 3438 225 
L 3438 0 
L 2491 -72 
L 2491 469 
Q 2372 228 2159 78 
Q 1947 -72 1691 -72 
Q 1231 -72 961 123 
Q 691 319 691 763 
z
" transform="scale(0.015625)"/>
       <path id="Cmr10-28" d="M 1984 -1588 
Q 1628 -1306 1370 -942 
Q 1113 -578 948 -165 
Q 784 247 703 697 
Q 622 1147 622 1600 
Q 622 2059 703 2509 
Q 784 2959 951 3375 
Q 1119 3791 1378 4153 
Q 1638 4516 1984 4788 
Q 1984 4800 2016 4800 
L 2075 4800 
Q 2094 4800 2109 4783 
Q 2125 4766 2125 4744 
Q 2125 4716 2113 4703 
Q 1800 4397 1592 4047 
Q 1384 3697 1257 3301 
Q 1131 2906 1075 2482 
Q 1019 2059 1019 1600 
Q 1019 -434 2106 -1491 
Q 2125 -1509 2125 -1544 
Q 2125 -1559 2108 -1579 
Q 2091 -1600 2075 -1600 
L 2016 -1600 
Q 1984 -1600 1984 -1588 
z
" transform="scale(0.015625)"/>
       <path id="Cmr10-4b" d="M 197 0 
L 197 225 
Q 856 225 856 428 
L 856 3944 
Q 856 4147 197 4147 
L 197 4372 
L 2113 4372 
L 2113 4147 
Q 1453 4147 1453 3944 
L 1453 1869 
L 3431 3769 
Q 3513 3856 3513 3944 
Q 3513 4044 3427 4095 
Q 3341 4147 3231 4147 
L 3231 4372 
L 4622 4372 
L 4622 4147 
Q 4097 4147 3700 3769 
L 2566 2681 
L 3969 603 
Q 4141 350 4270 287 
Q 4400 225 4709 225 
L 4709 0 
L 3034 0 
L 3034 225 
Q 3188 225 3292 256 
Q 3397 288 3397 403 
Q 3397 481 3316 603 
L 2169 2303 
L 1453 1613 
L 1453 428 
Q 1453 225 2113 225 
L 2113 0 
L 197 0 
z
" transform="scale(0.015625)"/>
       <path id="Cmr10-29" d="M 416 -1600 
Q 359 -1600 359 -1544 
Q 359 -1516 372 -1503 
Q 1466 -434 1466 1600 
Q 1466 3634 384 4691 
Q 359 4706 359 4744 
Q 359 4766 376 4783 
Q 394 4800 416 4800 
L 475 4800 
Q 494 4800 506 4788 
Q 966 4425 1272 3906 
Q 1578 3388 1720 2800 
Q 1863 2213 1863 1600 
Q 1863 1147 1786 708 
Q 1709 269 1542 -157 
Q 1375 -584 1119 -945 
Q 863 -1306 506 -1588 
Q 494 -1600 475 -1600 
L 416 -1600 
z
" transform="scale(0.015625)"/>
      </defs>
      <use xlink:href="#Cmr10-41"/>
      <use xlink:href="#Cmr10-76" transform="translate(75 0)"/>
      <use xlink:href="#Cmr10-65" transform="translate(127.685547 0)"/>
      <use xlink:href="#Cmr10-72" transform="translate(172.070312 0)"/>
      <use xlink:href="#Cmr10-61" transform="translate(211.181641 0)"/>
      <use xlink:href="#Cmr10-67" transform="translate(261.181641 0)"/>
      <use xlink:href="#Cmr10-65" transform="translate(311.181641 0)"/>
      <use xlink:href="#Cmr10-20" transform="translate(355.566406 0)"/>
      <use xlink:href="#Cmr10-54" transform="translate(388.867188 0)"/>
      <use xlink:href="#Cmr10-65" transform="translate(461.083984 0)"/>
      <use xlink:href="#Cmr10-6d" transform="translate(505.46875 0)"/>
      <use xlink:href="#Cmr10-70" transform="translate(588.769531 0)"/>
      <use xlink:href="#Cmr10-65" transform="translate(644.287109 0)"/>
      <use xlink:href="#Cmr10-72" transform="translate(688.671875 0)"/>
      <use xlink:href="#Cmr10-61" transform="translate(727.783203 0)"/>
      <use xlink:href="#Cmr10-74" transform="translate(777.783203 0)"/>
      <use xlink:href="#Cmr10-75" transform="translate(816.601562 0)"/>
      <use xlink:href="#Cmr10-72" transform="translate(872.119141 0)"/>
      <use xlink:href="#Cmr10-65" transform="translate(911.230469 0)"/>
      <use xlink:href="#Cmr10-20" transform="translate(955.615234 0)"/>
      <use xlink:href="#Cmr10-28" transform="translate(988.916016 0)"/>
      <use xlink:href="#Cmr10-4b" transform="translate(1027.734375 0)"/>
      <use xlink:href="#Cmr10-29" transform="translate(1105.419922 0)"/>
     </g>
    </g>
   </g>
   <g id="FillBetweenPolyCollection_1">
    <defs>
     <path id="m7102c5746b" d="M 57.8 -70.75889 
L 57.8 -49.265661 
L 60.371429 -47.787825 
L 62.942857 -48.052583 
L 65.514286 -54.509267 
L 68.085714 -62.787373 
L 70.657143 -53.55482 
L 73.228571 -49.078168 
L 75.8 -62.041497 
L 78.371429 -45.042792 
L 80.942857 -58.057716 
L 83.514286 -44.180382 
L 86.085714 -46.437633 
L 88.657143 -47.333026 
L 91.228571 -54.315468 
L 93.8 -42.870188 
L 96.371429 -40.703382 
L 98.942857 -46.744452 
L 101.514286 -52.794395 
L 104.085714 -52.831615 
L 106.657143 -59.94834 
L 109.228571 -50.498287 
L 111.8 -54.82608 
L 114.371429 -54.991992 
L 116.942857 -52.864845 
L 119.514286 -38.072784 
L 122.085714 -49.901567 
L 124.657143 -48.057241 
L 127.228571 -57.989938 
L 129.8 -49.239654 
L 132.371429 -56.339846 
L 134.942857 -56.090527 
L 137.514286 -52.49609 
L 140.085714 -58.090067 
L 142.657143 -62.301707 
L 145.228571 -48.958087 
L 147.8 -45.369578 
L 150.371429 -39.750913 
L 152.942857 -55.114635 
L 155.514286 -54.488445 
L 158.085714 -65.367234 
L 160.657143 -83.067686 
L 163.228571 -90.437075 
L 165.8 -71.494747 
L 168.371429 -80.668023 
L 170.942857 -76.997078 
L 173.514286 -69.259792 
L 176.085714 -71.543365 
L 178.657143 -70.511596 
L 181.228571 -83.614892 
L 183.8 -74.820884 
L 186.371429 -96.864329 
L 188.942857 -90.237339 
L 191.514286 -72.993598 
L 194.085714 -68.503577 
L 196.657143 -69.141013 
L 199.228571 -86.690072 
L 201.8 -82.815919 
L 204.371429 -83.702938 
L 206.942857 -90.297667 
L 209.514286 -81.53793 
L 212.085714 -82.625 
L 214.657143 -92.40858 
L 217.228571 -102.669285 
L 219.8 -95.911158 
L 222.371429 -89.248889 
L 224.942857 -109.985581 
L 227.514286 -104.434355 
L 230.085714 -107.846196 
L 232.657143 -95.492996 
L 235.228571 -104.433598 
L 237.8 -106.417641 
L 240.371429 -106.768445 
L 242.942857 -107.028754 
L 245.514286 -105.541202 
L 248.085714 -108.146472 
L 250.657143 -112.578633 
L 253.228571 -133.994978 
L 255.8 -125.0509 
L 258.371429 -125.199551 
L 260.942857 -127.007066 
L 263.514286 -132.70998 
L 266.085714 -113.54618 
L 268.657143 -121.702776 
L 271.228571 -135.635643 
L 273.8 -144.559228 
L 273.8 -164.890966 
L 273.8 -164.890966 
L 271.228571 -155.89361 
L 268.657143 -141.446403 
L 266.085714 -132.776146 
L 263.514286 -151.965853 
L 260.942857 -146.541394 
L 258.371429 -144.047528 
L 255.8 -142.505172 
L 253.228571 -151.525906 
L 250.657143 -131.23364 
L 248.085714 -127.150417 
L 245.514286 -125.902919 
L 242.942857 -126.320693 
L 240.371429 -127.044561 
L 237.8 -125.439535 
L 235.228571 -124.010791 
L 232.657143 -114.76228 
L 230.085714 -127.379006 
L 227.514286 -123.625159 
L 224.942857 -128.318379 
L 222.371429 -107.916549 
L 219.8 -116.068447 
L 217.228571 -122.384417 
L 214.657143 -112.95374 
L 212.085714 -102.194838 
L 209.514286 -100.687921 
L 206.942857 -113.624616 
L 204.371429 -103.188569 
L 201.8 -103.298361 
L 199.228571 -108.013718 
L 196.657143 -90.533931 
L 194.085714 -90.662409 
L 191.514286 -92.640174 
L 188.942857 -112.574588 
L 186.371429 -115.497068 
L 183.8 -94.133274 
L 181.228571 -103.309744 
L 178.657143 -92.925708 
L 176.085714 -90.858941 
L 173.514286 -89.102923 
L 170.942857 -96.362905 
L 168.371429 -100.677256 
L 165.8 -92.153999 
L 163.228571 -110.202825 
L 160.657143 -103.68849 
L 158.085714 -85.651835 
L 155.514286 -74.724767 
L 152.942857 -76.282153 
L 150.371429 -59.49303 
L 147.8 -64.90991 
L 145.228571 -69.557565 
L 142.657143 -83.879338 
L 140.085714 -79.766588 
L 137.514286 -73.609933 
L 134.942857 -74.982382 
L 132.371429 -77.23754 
L 129.8 -68.92335 
L 127.228571 -79.69066 
L 124.657143 -69.760563 
L 122.085714 -70.717844 
L 119.514286 -59.332329 
L 116.942857 -75.228854 
L 114.371429 -74.431691 
L 111.8 -76.057635 
L 109.228571 -71.737102 
L 106.657143 -79.339211 
L 104.085714 -72.74157 
L 101.514286 -74.3332 
L 98.942857 -65.581589 
L 96.371429 -63.451957 
L 93.8 -63.411443 
L 91.228571 -76.6809 
L 88.657143 -68.091679 
L 86.085714 -69.838383 
L 83.514286 -64.94905 
L 80.942857 -78.595641 
L 78.371429 -65.968798 
L 75.8 -82.845281 
L 73.228571 -70.491944 
L 70.657143 -75.860241 
L 68.085714 -82.783077 
L 65.514286 -74.263502 
L 62.942857 -68.414043 
L 60.371429 -69.934972 
L 57.8 -70.75889 
z
" style="stroke: #9c9ca1; stroke-opacity: 0.2"/>
    </defs>
    <g clip-path="url(#p789a2b9369)">
     <use xlink:href="#m7102c5746b" x="0" y="193.431875" style="fill: #9c9ca1; fill-opacity: 0.2; stroke: #9c9ca1; stroke-opacity: 0.2"/>
    </g>
   </g>
   <g id="patch_3">
    <path d="M 147.8 161.7 
L 158.085714 161.7 
L 158.085714 22.2 
L 147.8 22.2 
z
" clip-path="url(#p789a2b9369)" style="fill: #e42536; opacity: 0.1; stroke: #e42536; stroke-linejoin: miter"/>
   </g>
   <g id="line2d_85">
    <path d="M 57.8 134.027464 
L 60.371429 135.104364 
L 62.942857 135.134162 
L 65.514286 129.182083 
L 68.085714 120.081951 
L 70.657143 128.795512 
L 73.228571 133.676655 
L 75.8 121.193205 
L 78.371429 138.01005 
L 80.942857 125.363953 
L 83.514286 138.903225 
L 86.085714 134.713736 
L 88.657143 136.297077 
L 91.228571 128.561181 
L 93.8 139.970137 
L 96.371429 141.385157 
L 98.942857 137.431522 
L 101.514286 129.890241 
L 104.085714 130.762417 
L 106.657143 123.600223 
L 109.228571 131.787428 
L 111.8 127.353713 
L 114.371429 129.140515 
L 116.942857 129.447771 
L 119.514286 144.514558 
L 122.085714 133.542798 
L 124.657143 134.470898 
L 127.228571 125.306831 
L 129.8 134.748332 
L 132.371429 127.004924 
L 134.942857 128.125019 
L 137.514286 130.575791 
L 140.085714 123.835031 
L 142.657143 120.395602 
L 145.228571 134.131806 
L 147.8 138.63798 
L 150.371429 143.787004 
L 152.942857 127.38386 
L 155.514286 128.723202 
L 158.085714 117.930262 
L 160.657143 100.07027 
L 163.228571 92.755899 
L 165.8 111.703809 
L 168.371429 102.75946 
L 170.942857 107.296799 
L 173.514286 114.085047 
L 176.085714 112.602456 
L 178.657143 112.469115 
L 181.228571 99.866632 
L 183.8 108.678637 
L 186.371429 87.327207 
L 188.942857 92.090853 
L 191.514286 110.53135 
L 194.085714 113.569193 
L 196.657143 113.321485 
L 199.228571 95.978264 
L 201.8 100.076764 
L 204.371429 99.861904 
L 206.942857 91.333046 
L 209.514286 102.546961 
L 212.085714 101.283239 
L 214.657143 91.382457 
L 217.228571 81.215334 
L 219.8 87.722278 
L 222.371429 94.66563 
L 224.942857 73.825274 
L 227.514286 79.487642 
L 230.085714 75.573613 
L 232.657143 88.698544 
L 235.228571 79.540827 
L 237.8 77.220401 
L 240.371429 76.392047 
L 242.942857 76.850503 
L 245.514286 77.692154 
L 248.085714 75.372839 
L 250.657143 71.741782 
L 253.228571 50.952887 
L 255.8 59.42864 
L 258.371429 58.962348 
L 260.942857 57.051293 
L 263.514286 51.330994 
L 266.085714 70.13802 
L 268.657143 61.993816 
L 271.228571 47.603125 
L 273.8 38.567129 
" clip-path="url(#p789a2b9369)" style="fill: none; stroke: #9c9ca1; stroke-width: 1.5; stroke-linecap: square"/>
   </g>
   <g id="line2d_86">
    <path d="M 152.942857 161.7 
L 152.942857 22.2 
" clip-path="url(#p789a2b9369)" style="fill: none; stroke: #e42536; stroke-linecap: square"/>
   </g>
   <g id="patch_4">
    <path d="M 47 161.7 
L 47 22.2 
" style="fill: none; stroke: #000000; stroke-width: 0.8; stroke-linejoin: miter; stroke-linecap: square"/>
   </g>
   <g id="patch_5">
    <path d="M 284.6 161.7 
L 284.6 22.2 
" style="fill: none; stroke: #000000; stroke-width: 0.8; stroke-linejoin: miter; stroke-linecap: square"/>
   </g>
   <g id="patch_6">
    <path d="M 47 161.7 
L 284.6 161.7 
" style="fill: none; stroke: #000000; stroke-width: 0.8; stroke-linejoin: miter; stroke-linecap: square"/>
   </g>
   <g id="patch_7">
    <path d="M 47 22.2 
L 284.6 22.2 
" style="fill: none; stroke: #000000; stroke-width: 0.8; stroke-linejoin: miter; stroke-linecap: square"/>
   </g>
   <g id="text_13">
    <!-- Daily Average Temperature (1940-2024) -->
    <g transform="translate(59.749062 16.2) scale(0.12 -0.12)">
     <defs>
      <path id="Cmr10-44" d="M 213 0 
L 213 225 
Q 872 225 872 428 
L 872 3944 
Q 872 4147 213 4147 
L 213 4372 
L 2572 4372 
Q 3009 4372 3371 4183 
Q 3734 3994 3990 3678 
Q 4247 3363 4386 2963 
Q 4525 2563 4525 2144 
Q 4525 1738 4384 1355 
Q 4244 972 3980 664 
Q 3716 356 3355 178 
Q 2994 0 2572 0 
L 213 0 
z
M 1447 428 
Q 1447 291 1525 258 
Q 1603 225 1772 225 
L 2406 225 
Q 2734 225 3029 367 
Q 3325 509 3519 763 
Q 3722 1031 3790 1364 
Q 3859 1697 3859 2144 
Q 3859 2609 3790 2959 
Q 3722 3309 3519 3584 
Q 3328 3856 3034 4001 
Q 2741 4147 2406 4147 
L 1772 4147 
Q 1656 4147 1592 4137 
Q 1528 4128 1487 4083 
Q 1447 4038 1447 3944 
L 1447 428 
z
" transform="scale(0.015625)"/>
      <path id="Cmr10-69" d="M 197 0 
L 197 225 
Q 416 225 556 259 
Q 697 294 697 428 
L 697 2175 
Q 697 2422 601 2478 
Q 506 2534 225 2534 
L 225 2759 
L 1147 2828 
L 1147 428 
Q 1147 294 1269 259 
Q 1391 225 1594 225 
L 1594 0 
L 197 0 
z
M 469 3928 
Q 469 4069 575 4175 
Q 681 4281 819 4281 
Q 909 4281 993 4234 
Q 1078 4188 1125 4103 
Q 1172 4019 1172 3928 
Q 1172 3791 1065 3684 
Q 959 3578 819 3578 
Q 681 3578 575 3684 
Q 469 3791 469 3928 
z
" transform="scale(0.015625)"/>
      <path id="Cmr10-6c" d="M 197 0 
L 197 225 
Q 416 225 556 259 
Q 697 294 697 428 
L 697 3788 
Q 697 3959 645 4036 
Q 594 4113 497 4130 
Q 400 4147 197 4147 
L 197 4372 
L 1147 4441 
L 1147 428 
Q 1147 294 1287 259 
Q 1428 225 1644 225 
L 1644 0 
L 197 0 
z
" transform="scale(0.015625)"/>
      <path id="Cmr10-79" d="M 441 -1050 
Q 563 -1147 709 -1147 
Q 1113 -1147 1369 -538 
L 1588 0 
L 628 2350 
Q 569 2469 447 2501 
Q 325 2534 122 2534 
L 122 2759 
L 1466 2759 
L 1466 2534 
Q 1113 2534 1113 2381 
Q 1113 2356 1119 2344 
L 1831 594 
L 2472 2169 
Q 2491 2219 2491 2278 
Q 2491 2356 2448 2414 
Q 2406 2472 2339 2503 
Q 2272 2534 2188 2534 
L 2188 2759 
L 3250 2759 
L 3250 2534 
Q 3053 2534 2904 2443 
Q 2756 2353 2675 2175 
L 1569 -538 
Q 1481 -744 1364 -917 
Q 1247 -1091 1078 -1202 
Q 909 -1313 709 -1313 
Q 475 -1313 298 -1158 
Q 122 -1003 122 -775 
Q 122 -656 203 -575 
Q 284 -494 403 -494 
Q 484 -494 548 -530 
Q 613 -566 648 -628 
Q 684 -691 684 -775 
Q 684 -878 615 -959 
Q 547 -1041 441 -1050 
z
" transform="scale(0.015625)"/>
      <path id="Cmr10-2d" d="M 72 1184 
L 72 1581 
L 1766 1581 
L 1766 1184 
L 72 1184 
z
" transform="scale(0.015625)"/>
     </defs>
     <use xlink:href="#Cmr10-44"/>
     <use xlink:href="#Cmr10-61" transform="translate(76.318359 0)"/>
     <use xlink:href="#Cmr10-69" transform="translate(126.318359 0)"/>
     <use xlink:href="#Cmr10-6c" transform="translate(154.003906 0)"/>
     <use xlink:href="#Cmr10-79" transform="translate(181.689453 0)"/>
     <use xlink:href="#Cmr10-20" transform="translate(234.375 0)"/>
     <use xlink:href="#Cmr10-41" transform="translate(267.675781 0)"/>
     <use xlink:href="#Cmr10-76" transform="translate(342.675781 0)"/>
     <use xlink:href="#Cmr10-65" transform="translate(395.361328 0)"/>
     <use xlink:href="#Cmr10-72" transform="translate(439.746094 0)"/>
     <use xlink:href="#Cmr10-61" transform="translate(478.857422 0)"/>
     <use xlink:href="#Cmr10-67" transform="translate(528.857422 0)"/>
     <use xlink:href="#Cmr10-65" transform="translate(578.857422 0)"/>
     <use xlink:href="#Cmr10-20" transform="translate(623.242188 0)"/>
     <use xlink:href="#Cmr10-54" transform="translate(656.542969 0)"/>
     <use xlink:href="#Cmr10-65" transform="translate(728.759766 0)"/>
     <use xlink:href="#Cmr10-6d" transform="translate(773.144531 0)"/>
     <use xlink:href="#Cmr10-70" transform="translate(856.445312 0)"/>
     <use xlink:href="#Cmr10-65" transform="translate(911.962891 0)"/>
     <use xlink:href="#Cmr10-72" transform="translate(956.347656 0)"/>
     <use xlink:href="#Cmr10-61" transform="translate(995.458984 0)"/>
     <use xlink:href="#Cmr10-74" transform="translate(1045.458984 0)"/>
     <use xlink:href="#Cmr10-75" transform="translate(1084.277344 0)"/>
     <use xlink:href="#Cmr10-72" transform="translate(1139.794922 0)"/>
     <use xlink:href="#Cmr10-65" transform="translate(1178.90625 0)"/>
     <use xlink:href="#Cmr10-20" transform="translate(1223.291016 0)"/>
     <use xlink:href="#Cmr10-28" transform="translate(1256.591797 0)"/>
     <use xlink:href="#Cmr10-31" transform="translate(1295.410156 0)"/>
     <use xlink:href="#Cmr10-39" transform="translate(1345.410156 0)"/>
     <use xlink:href="#Cmr10-34" transform="translate(1395.410156 0)"/>
     <use xlink:href="#Cmr10-30" transform="translate(1445.410156 0)"/>
     <use xlink:href="#Cmr10-2d" transform="translate(1495.410156 0)"/>
     <use xlink:href="#Cmr10-32" transform="translate(1528.710938 0)"/>
     <use xlink:href="#Cmr10-30" transform="translate(1578.710938 0)"/>
     <use xlink:href="#Cmr10-32" transform="translate(1628.710938 0)"/>
     <use xlink:href="#Cmr10-34" transform="translate(1678.710938 0)"/>
     <use xlink:href="#Cmr10-29" transform="translate(1728.710938 0)"/>
    </g>
   </g>
   <g id="legend_1">
    <g id="patch_8">
     <path d="M 172.125 156.7 
L 277.6 156.7 
Q 279.6 156.7 279.6 154.7 
L 279.6 141.760937 
Q 279.6 139.760937 277.6 139.760937 
L 172.125 139.760937 
Q 170.125 139.760937 170.125 141.760937 
L 170.125 154.7 
Q 170.125 156.7 172.125 156.7 
z
" style="fill: #ffffff; opacity: 0.8; stroke: #000000; stroke-linejoin: miter"/>
    </g>
    <g id="line2d_87">
     <path d="M 174.125 147.260937 
L 184.125 147.260937 
L 194.125 147.260937 
" style="fill: none; stroke: #e42536; stroke-linecap: square"/>
    </g>
    <g id="text_14">
     <!-- Structural Break -->
     <g transform="translate(202.125 150.760937) scale(0.1 -0.1)">
      <defs>
       <path id="Cmr10-53" d="M 359 -91 
L 359 1403 
Q 359 1453 416 1453 
L 494 1453 
Q 513 1453 528 1437 
Q 544 1422 544 1403 
Q 544 775 933 429 
Q 1322 84 1953 84 
Q 2175 84 2362 212 
Q 2550 341 2654 548 
Q 2759 756 2759 978 
Q 2759 1172 2681 1355 
Q 2603 1538 2456 1672 
Q 2309 1806 2125 1850 
L 1294 2053 
Q 881 2163 620 2502 
Q 359 2841 359 3263 
Q 359 3594 528 3884 
Q 697 4175 983 4344 
Q 1269 4513 1600 4513 
Q 2241 4513 2619 4078 
L 2881 4494 
Q 2900 4513 2925 4513 
L 2969 4513 
Q 2988 4513 3005 4498 
Q 3022 4484 3022 4459 
L 3022 2975 
Q 3022 2919 2969 2919 
L 2894 2919 
Q 2834 2919 2834 2975 
Q 2834 3138 2779 3331 
Q 2725 3525 2628 3703 
Q 2531 3881 2419 3994 
Q 2109 4306 1600 4306 
Q 1381 4306 1197 4195 
Q 1013 4084 903 3893 
Q 794 3703 794 3494 
Q 794 3219 964 2995 
Q 1134 2772 1409 2700 
L 2241 2497 
Q 2447 2447 2630 2317 
Q 2813 2188 2934 2016 
Q 3056 1844 3125 1633 
Q 3194 1422 3194 1197 
Q 3194 850 3034 542 
Q 2875 234 2586 46 
Q 2297 -141 1953 -141 
Q 1741 -141 1519 -94 
Q 1297 -47 1109 50 
Q 922 147 769 300 
L 500 -122 
Q 481 -141 453 -141 
L 416 -141 
Q 359 -141 359 -91 
z
" transform="scale(0.015625)"/>
       <path id="Cmr10-63" d="M 1594 -72 
Q 1206 -72 890 129 
Q 575 331 394 667 
Q 213 1003 213 1381 
Q 213 1759 392 2106 
Q 572 2453 889 2661 
Q 1206 2869 1594 2869 
Q 1969 2869 2276 2722 
Q 2584 2575 2584 2241 
Q 2584 2116 2495 2023 
Q 2406 1931 2278 1931 
Q 2150 1931 2061 2023 
Q 1972 2116 1972 2241 
Q 1972 2353 2044 2436 
Q 2116 2519 2222 2541 
Q 2000 2681 1600 2681 
Q 1294 2681 1106 2478 
Q 919 2275 844 1975 
Q 769 1675 769 1381 
Q 769 1072 861 783 
Q 953 494 1158 305 
Q 1363 116 1672 116 
Q 1975 116 2187 302 
Q 2400 488 2478 788 
Q 2478 825 2528 825 
L 2606 825 
Q 2625 825 2640 808 
Q 2656 791 2656 769 
L 2656 750 
Q 2559 372 2271 150 
Q 1984 -72 1594 -72 
z
" transform="scale(0.015625)"/>
       <path id="Cmr10-42" d="M 219 0 
L 219 225 
Q 878 225 878 428 
L 878 3944 
Q 878 4147 219 4147 
L 219 4372 
L 2572 4372 
Q 2897 4372 3228 4245 
Q 3559 4119 3776 3870 
Q 3994 3622 3994 3284 
Q 3994 2894 3673 2630 
Q 3353 2366 2925 2284 
Q 3203 2284 3497 2131 
Q 3791 1978 3978 1722 
Q 4166 1466 4166 1178 
Q 4166 828 3958 559 
Q 3750 291 3419 145 
Q 3088 0 2753 0 
L 219 0 
z
M 1434 428 
Q 1434 291 1512 258 
Q 1591 225 1759 225 
L 2572 225 
Q 2822 225 3036 356 
Q 3250 488 3375 708 
Q 3500 928 3500 1178 
Q 3500 1422 3397 1655 
Q 3294 1888 3101 2038 
Q 2909 2188 2663 2188 
L 1434 2188 
L 1434 428 
z
M 1434 2356 
L 2394 2356 
Q 2588 2356 2758 2426 
Q 2928 2497 3064 2630 
Q 3200 2763 3273 2930 
Q 3347 3097 3347 3284 
Q 3347 3450 3292 3603 
Q 3238 3756 3131 3881 
Q 3025 4006 2881 4076 
Q 2738 4147 2572 4147 
L 1759 4147 
Q 1644 4147 1580 4137 
Q 1516 4128 1475 4083 
Q 1434 4038 1434 3944 
L 1434 2356 
z
" transform="scale(0.015625)"/>
       <path id="Cmr10-6b" d="M 166 0 
L 166 225 
Q 384 225 525 259 
Q 666 294 666 428 
L 666 3788 
Q 666 3959 614 4036 
Q 563 4113 466 4130 
Q 369 4147 166 4147 
L 166 4372 
L 1113 4441 
L 1113 1403 
L 1972 2156 
Q 2100 2278 2100 2381 
Q 2100 2456 2047 2495 
Q 1994 2534 1919 2534 
L 1919 2759 
L 3122 2759 
L 3122 2534 
Q 2688 2534 2253 2156 
L 1797 1759 
L 2613 603 
Q 2781 363 2895 294 
Q 3009 225 3272 225 
L 3272 0 
L 1997 0 
L 1997 225 
Q 2216 225 2216 359 
Q 2216 456 2100 603 
L 1484 1478 
L 1094 1141 
L 1094 428 
Q 1094 294 1236 259 
Q 1378 225 1594 225 
L 1594 0 
L 166 0 
z
" transform="scale(0.015625)"/>
      </defs>
      <use xlink:href="#Cmr10-53"/>
      <use xlink:href="#Cmr10-74" transform="translate(55.517578 0)"/>
      <use xlink:href="#Cmr10-72" transform="translate(94.335938 0)"/>
      <use xlink:href="#Cmr10-75" transform="translate(133.447266 0)"/>
      <use xlink:href="#Cmr10-63" transform="translate(188.964844 0)"/>
      <use xlink:href="#Cmr10-74" transform="translate(233.349609 0)"/>
      <use xlink:href="#Cmr10-75" transform="translate(272.167969 0)"/>
      <use xlink:href="#Cmr10-72" transform="translate(327.685547 0)"/>
      <use xlink:href="#Cmr10-61" transform="translate(366.796875 0)"/>
      <use xlink:href="#Cmr10-6c" transform="translate(416.796875 0)"/>
      <use xlink:href="#Cmr10-20" transform="translate(444.482422 0)"/>
      <use xlink:href="#Cmr10-42" transform="translate(477.783203 0)"/>
      <use xlink:href="#Cmr10-72" transform="translate(548.583984 0)"/>
      <use xlink:href="#Cmr10-65" transform="translate(587.695312 0)"/>
      <use xlink:href="#Cmr10-61" transform="translate(632.080078 0)"/>
      <use xlink:href="#Cmr10-6b" transform="translate(682.080078 0)"/>
     </g>
    </g>
   </g>
  </g>
 </g>
 <defs>
  <clipPath id="p789a2b9369">
   <rect x="47" y="22.2" width="237.6" height="139.5"/>
  </clipPath>
 </defs>
</svg>
