<?xml version="1.0" encoding="utf-8" standalone="no"?>
<!DOCTYPE svg PUBLIC "-//W3C//DTD SVG 1.1//EN"
  "http://www.w3.org/Graphics/SVG/1.1/DTD/svg11.dtd">
<svg xmlns:xlink="http://www.w3.org/1999/xlink" width="284pt" height="193.431875pt" viewBox="0 0 284 193.431875" xmlns="http://www.w3.org/2000/svg" version="1.1">
 <metadata>
  <rdf:RDF xmlns:dc="http://purl.org/dc/elements/1.1/" xmlns:cc="http://creativecommons.org/ns#" xmlns:rdf="http://www.w3.org/1999/02/22-rdf-syntax-ns#">
   <cc:Work>
    <dc:type rdf:resource="http://purl.org/dc/dcmitype/StillImage"/>
    <dc:date>2025-08-31T19:41:49.474718</dc:date>
    <dc:format>image/svg+xml</dc:format>
    <dc:creator>
     <cc:Agent>
      <dc:title>Matplotlib v3.10.5, https://matplotlib.org/</dc:title>
     </cc:Agent>
    </dc:creator>
   </cc:Work>
  </rdf:RDF>
 </metadata>
 <defs>
  <style type="text/css">*{stroke-linejoin: round; stroke-linecap: butt}</style>
 </defs>
 <g id="figure_1">
  <g id="patch_1">
   <path d="M 0 193.431875 
L 284 193.431875 
L 284 0 
L 0 0 
L 0 193.431875 
z
" style="fill: none"/>
  </g>
  <g id="axes_1">
   <g id="patch_2">
    <path d="M 39.2 161.7 
L 276.8 161.7 
L 276.8 22.2 
L 39.2 22.2 
L 39.2 161.7 
z
" style="fill: none"/>
   </g>
   <g id="matplotlib.axis_1">
    <g id="xtick_1">
     <g id="line2d_1">
      <defs>
       <path id="m1fbef5a412" d="M 0 0 
L 0 -3 
" style="stroke: #000000"/>
      </defs>
      <g>
       <use xlink:href="#m1fbef5a412" x="69.636364" y="161.7" style="stroke: #000000"/>
      </g>
     </g>
     <g id="line2d_2">
      <defs>
       <path id="m26b0c75f57" d="M 0 0 
L 0 3 
" style="stroke: #000000"/>
      </defs>
      <g>
       <use xlink:href="#m26b0c75f57" x="69.636364" y="22.2" style="stroke: #000000"/>
      </g>
     </g>
     <g id="text_1">
      <!-- $\mathdefault{2}$ -->
      <g transform="translate(67.136364 169.639062) scale(0.1 -0.1)">
       <defs>
        <path id="Cmr10-32" d="M 319 0 
L 319 172 
Q 319 188 331 206 
L 1325 1306 
Q 1550 1550 1690 1715 
Q 1831 1881 1968 2097 
Q 2106 2313 2186 2536 
Q 2266 2759 2266 3009 
Q 2266 3272 2169 3511 
Q 2072 3750 1880 3894 
Q 1688 4038 1416 4038 
Q 1138 4038 916 3870 
Q 694 3703 603 3438 
Q 628 3444 672 3444 
Q 816 3444 917 3347 
Q 1019 3250 1019 3097 
Q 1019 2950 917 2848 
Q 816 2747 672 2747 
Q 522 2747 420 2851 
Q 319 2956 319 3097 
Q 319 3338 409 3548 
Q 500 3759 670 3923 
Q 841 4088 1055 4175 
Q 1269 4263 1509 4263 
Q 1875 4263 2190 4108 
Q 2506 3953 2690 3670 
Q 2875 3388 2875 3009 
Q 2875 2731 2753 2481 
Q 2631 2231 2440 2026 
Q 2250 1822 1953 1562 
Q 1656 1303 1563 1216 
L 838 519 
L 1453 519 
Q 1906 519 2211 526 
Q 2516 534 2534 550 
Q 2609 631 2688 1141 
L 2875 1141 
L 2694 0 
L 319 0 
z
" transform="scale(0.015625)"/>
       </defs>
       <use xlink:href="#Cmr10-32" transform="translate(0 0.390625)"/>
      </g>
     </g>
    </g>
    <g id="xtick_2">
     <g id="line2d_3">
      <g>
       <use xlink:href="#m1fbef5a412" x="108.909091" y="161.7" style="stroke: #000000"/>
      </g>
     </g>
     <g id="line2d_4">
      <g>
       <use xlink:href="#m26b0c75f57" x="108.909091" y="22.2" style="stroke: #000000"/>
      </g>
     </g>
     <g id="text_2">
      <!-- $\mathdefault{4}$ -->
      <g transform="translate(106.409091 169.639062) scale(0.1 -0.1)">
       <defs>
        <path id="Cmr10-34" d="M 178 1056 
L 178 1281 
L 2156 4231 
Q 2178 4263 2222 4263 
L 2316 4263 
Q 2388 4263 2388 4191 
L 2388 1281 
L 3016 1281 
L 3016 1056 
L 2388 1056 
L 2388 428 
Q 2388 297 2575 261 
Q 2763 225 3009 225 
L 3009 0 
L 1247 0 
L 1247 225 
Q 1494 225 1681 261 
Q 1869 297 1869 428 
L 1869 1056 
L 178 1056 
z
M 391 1281 
L 1906 1281 
L 1906 3547 
L 391 1281 
z
" transform="scale(0.015625)"/>
       </defs>
       <use xlink:href="#Cmr10-34" transform="translate(0 0.390625)"/>
      </g>
     </g>
    </g>
    <g id="xtick_3">
     <g id="line2d_5">
      <g>
       <use xlink:href="#m1fbef5a412" x="148.181818" y="161.7" style="stroke: #000000"/>
      </g>
     </g>
     <g id="line2d_6">
      <g>
       <use xlink:href="#m26b0c75f57" x="148.181818" y="22.2" style="stroke: #000000"/>
      </g>
     </g>
     <g id="text_3">
      <!-- $\mathdefault{6}$ -->
      <g transform="translate(145.681818 169.639062) scale(0.1 -0.1)">
       <defs>
        <path id="Cmr10-36" d="M 1600 -141 
Q 1203 -141 937 70 
Q 672 281 526 617 
Q 381 953 325 1322 
Q 269 1691 269 2069 
Q 269 2575 466 3084 
Q 663 3594 1045 3928 
Q 1428 4263 1953 4263 
Q 2172 4263 2361 4180 
Q 2550 4097 2658 3936 
Q 2766 3775 2766 3547 
Q 2766 3416 2677 3327 
Q 2588 3238 2456 3238 
Q 2331 3238 2240 3328 
Q 2150 3419 2150 3547 
Q 2150 3672 2240 3762 
Q 2331 3853 2456 3853 
L 2491 3853 
Q 2409 3969 2261 4023 
Q 2113 4078 1953 4078 
Q 1759 4078 1595 3993 
Q 1431 3909 1300 3765 
Q 1169 3622 1081 3448 
Q 994 3275 945 3053 
Q 897 2831 884 2637 
Q 872 2444 872 2150 
Q 984 2413 1190 2580 
Q 1397 2747 1656 2747 
Q 1941 2747 2175 2631 
Q 2409 2516 2578 2311 
Q 2747 2106 2836 1843 
Q 2925 1581 2925 1313 
Q 2925 938 2758 598 
Q 2591 259 2287 59 
Q 1984 -141 1600 -141 
z
M 1600 63 
Q 1847 63 1997 175 
Q 2147 288 2217 473 
Q 2288 659 2305 848 
Q 2322 1038 2322 1313 
Q 2322 1675 2287 1931 
Q 2253 2188 2100 2383 
Q 1947 2578 1631 2578 
Q 1372 2578 1205 2403 
Q 1038 2228 961 1961 
Q 884 1694 884 1447 
Q 884 1363 891 1319 
Q 891 1309 889 1303 
Q 888 1297 884 1288 
Q 884 1013 940 731 
Q 997 450 1156 256 
Q 1316 63 1600 63 
z
" transform="scale(0.015625)"/>
       </defs>
       <use xlink:href="#Cmr10-36" transform="translate(0 0.390625)"/>
      </g>
     </g>
    </g>
    <g id="xtick_4">
     <g id="line2d_7">
      <g>
       <use xlink:href="#m1fbef5a412" x="187.454545" y="161.7" style="stroke: #000000"/>
      </g>
     </g>
     <g id="line2d_8">
      <g>
       <use xlink:href="#m26b0c75f57" x="187.454545" y="22.2" style="stroke: #000000"/>
      </g>
     </g>
     <g id="text_4">
      <!-- $\mathdefault{8}$ -->
      <g transform="translate(184.954545 169.639062) scale(0.1 -0.1)">
       <defs>
        <path id="Cmr10-38" d="M 269 972 
Q 269 1356 522 1651 
Q 775 1947 1172 2144 
L 934 2297 
Q 716 2441 578 2680 
Q 441 2919 441 3181 
Q 441 3488 602 3734 
Q 763 3981 1030 4122 
Q 1297 4263 1600 4263 
Q 1884 4263 2148 4147 
Q 2413 4031 2583 3815 
Q 2753 3600 2753 3303 
Q 2753 3088 2651 2903 
Q 2550 2719 2373 2572 
Q 2197 2425 1997 2322 
L 2363 2088 
Q 2616 1922 2770 1653 
Q 2925 1384 2925 1088 
Q 2925 741 2739 456 
Q 2553 172 2247 15 
Q 1941 -141 1600 -141 
Q 1269 -141 961 -6 
Q 653 128 461 383 
Q 269 638 269 972 
z
M 616 972 
Q 616 719 755 509 
Q 894 300 1122 181 
Q 1350 63 1600 63 
Q 1972 63 2275 280 
Q 2578 497 2578 856 
Q 2578 978 2529 1098 
Q 2481 1219 2395 1317 
Q 2309 1416 2203 1478 
L 1344 2034 
Q 1144 1928 976 1765 
Q 809 1603 712 1400 
Q 616 1197 616 972 
z
M 1056 2925 
L 1831 2425 
Q 2100 2581 2272 2803 
Q 2444 3025 2444 3303 
Q 2444 3519 2323 3698 
Q 2203 3878 2009 3978 
Q 1816 4078 1594 4078 
Q 1400 4078 1203 4003 
Q 1006 3928 878 3779 
Q 750 3631 750 3431 
Q 750 3131 1056 2925 
z
" transform="scale(0.015625)"/>
       </defs>
       <use xlink:href="#Cmr10-38" transform="translate(0 0.390625)"/>
      </g>
     </g>
    </g>
    <g id="xtick_5">
     <g id="line2d_9">
      <g>
       <use xlink:href="#m1fbef5a412" x="226.727273" y="161.7" style="stroke: #000000"/>
      </g>
     </g>
     <g id="line2d_10">
      <g>
       <use xlink:href="#m26b0c75f57" x="226.727273" y="22.2" style="stroke: #000000"/>
      </g>
     </g>
     <g id="text_5">
      <!-- $\mathdefault{10}$ -->
      <g transform="translate(221.727273 169.639062) scale(0.1 -0.1)">
       <defs>
        <path id="Cmr10-31" d="M 594 0 
L 594 225 
Q 1394 225 1394 428 
L 1394 3788 
Q 1063 3628 556 3628 
L 556 3853 
Q 1341 3853 1741 4263 
L 1831 4263 
Q 1853 4263 1873 4245 
Q 1894 4228 1894 4206 
L 1894 428 
Q 1894 225 2694 225 
L 2694 0 
L 594 0 
z
" transform="scale(0.015625)"/>
        <path id="Cmr10-30" d="M 1600 -141 
Q 816 -141 533 504 
Q 250 1150 250 2041 
Q 250 2597 351 3087 
Q 453 3578 754 3920 
Q 1056 4263 1600 4263 
Q 2022 4263 2290 4056 
Q 2559 3850 2700 3523 
Q 2841 3197 2892 2823 
Q 2944 2450 2944 2041 
Q 2944 1491 2842 1011 
Q 2741 531 2444 195 
Q 2147 -141 1600 -141 
z
M 1600 25 
Q 1956 25 2131 390 
Q 2306 756 2347 1200 
Q 2388 1644 2388 2144 
Q 2388 2625 2347 3031 
Q 2306 3438 2132 3767 
Q 1959 4097 1600 4097 
Q 1238 4097 1063 3765 
Q 888 3434 847 3029 
Q 806 2625 806 2144 
Q 806 1788 823 1472 
Q 841 1156 916 820 
Q 991 484 1158 254 
Q 1325 25 1600 25 
z
" transform="scale(0.015625)"/>
       </defs>
       <use xlink:href="#Cmr10-31" transform="translate(0 0.390625)"/>
       <use xlink:href="#Cmr10-30" transform="translate(50 0.390625)"/>
      </g>
     </g>
    </g>
    <g id="xtick_6">
     <g id="line2d_11">
      <g>
       <use xlink:href="#m1fbef5a412" x="266" y="161.7" style="stroke: #000000"/>
      </g>
     </g>
     <g id="line2d_12">
      <g>
       <use xlink:href="#m26b0c75f57" x="266" y="22.2" style="stroke: #000000"/>
      </g>
     </g>
     <g id="text_6">
      <!-- $\mathdefault{12}$ -->
      <g transform="translate(261 169.639062) scale(0.1 -0.1)">
       <use xlink:href="#Cmr10-31" transform="translate(0 0.390625)"/>
       <use xlink:href="#Cmr10-32" transform="translate(50 0.390625)"/>
      </g>
     </g>
    </g>
    <g id="xtick_7">
     <g id="line2d_13">
      <defs>
       <path id="m91fc791980" d="M 0 0 
L 0 -1 
" style="stroke: #000000"/>
      </defs>
      <g>
       <use xlink:href="#m91fc791980" x="40.181818" y="161.7" style="stroke: #000000"/>
      </g>
     </g>
     <g id="line2d_14">
      <defs>
       <path id="m88aac36916" d="M 0 0 
L 0 1 
" style="stroke: #000000"/>
      </defs>
      <g>
       <use xlink:href="#m88aac36916" x="40.181818" y="22.2" style="stroke: #000000"/>
      </g>
     </g>
    </g>
    <g id="xtick_8">
     <g id="line2d_15">
      <g>
       <use xlink:href="#m91fc791980" x="50" y="161.7" style="stroke: #000000"/>
      </g>
     </g>
     <g id="line2d_16">
      <g>
       <use xlink:href="#m88aac36916" x="50" y="22.2" style="stroke: #000000"/>
      </g>
     </g>
    </g>
    <g id="xtick_9">
     <g id="line2d_17">
      <g>
       <use xlink:href="#m91fc791980" x="59.818182" y="161.7" style="stroke: #000000"/>
      </g>
     </g>
     <g id="line2d_18">
      <g>
       <use xlink:href="#m88aac36916" x="59.818182" y="22.2" style="stroke: #000000"/>
      </g>
     </g>
    </g>
    <g id="xtick_10">
     <g id="line2d_19">
      <g>
       <use xlink:href="#m91fc791980" x="79.454545" y="161.7" style="stroke: #000000"/>
      </g>
     </g>
     <g id="line2d_20">
      <g>
       <use xlink:href="#m88aac36916" x="79.454545" y="22.2" style="stroke: #000000"/>
      </g>
     </g>
    </g>
    <g id="xtick_11">
     <g id="line2d_21">
      <g>
       <use xlink:href="#m91fc791980" x="89.272727" y="161.7" style="stroke: #000000"/>
      </g>
     </g>
     <g id="line2d_22">
      <g>
       <use xlink:href="#m88aac36916" x="89.272727" y="22.2" style="stroke: #000000"/>
      </g>
     </g>
    </g>
    <g id="xtick_12">
     <g id="line2d_23">
      <g>
       <use xlink:href="#m91fc791980" x="99.090909" y="161.7" style="stroke: #000000"/>
      </g>
     </g>
     <g id="line2d_24">
      <g>
       <use xlink:href="#m88aac36916" x="99.090909" y="22.2" style="stroke: #000000"/>
      </g>
     </g>
    </g>
    <g id="xtick_13">
     <g id="line2d_25">
      <g>
       <use xlink:href="#m91fc791980" x="118.727273" y="161.7" style="stroke: #000000"/>
      </g>
     </g>
     <g id="line2d_26">
      <g>
       <use xlink:href="#m88aac36916" x="118.727273" y="22.2" style="stroke: #000000"/>
      </g>
     </g>
    </g>
    <g id="xtick_14">
     <g id="line2d_27">
      <g>
       <use xlink:href="#m91fc791980" x="128.545455" y="161.7" style="stroke: #000000"/>
      </g>
     </g>
     <g id="line2d_28">
      <g>
       <use xlink:href="#m88aac36916" x="128.545455" y="22.2" style="stroke: #000000"/>
      </g>
     </g>
    </g>
    <g id="xtick_15">
     <g id="line2d_29">
      <g>
       <use xlink:href="#m91fc791980" x="138.363636" y="161.7" style="stroke: #000000"/>
      </g>
     </g>
     <g id="line2d_30">
      <g>
       <use xlink:href="#m88aac36916" x="138.363636" y="22.2" style="stroke: #000000"/>
      </g>
     </g>
    </g>
    <g id="xtick_16">
     <g id="line2d_31">
      <g>
       <use xlink:href="#m91fc791980" x="158" y="161.7" style="stroke: #000000"/>
      </g>
     </g>
     <g id="line2d_32">
      <g>
       <use xlink:href="#m88aac36916" x="158" y="22.2" style="stroke: #000000"/>
      </g>
     </g>
    </g>
    <g id="xtick_17">
     <g id="line2d_33">
      <g>
       <use xlink:href="#m91fc791980" x="167.818182" y="161.7" style="stroke: #000000"/>
      </g>
     </g>
     <g id="line2d_34">
      <g>
       <use xlink:href="#m88aac36916" x="167.818182" y="22.2" style="stroke: #000000"/>
      </g>
     </g>
    </g>
    <g id="xtick_18">
     <g id="line2d_35">
      <g>
       <use xlink:href="#m91fc791980" x="177.636364" y="161.7" style="stroke: #000000"/>
      </g>
     </g>
     <g id="line2d_36">
      <g>
       <use xlink:href="#m88aac36916" x="177.636364" y="22.2" style="stroke: #000000"/>
      </g>
     </g>
    </g>
    <g id="xtick_19">
     <g id="line2d_37">
      <g>
       <use xlink:href="#m91fc791980" x="197.272727" y="161.7" style="stroke: #000000"/>
      </g>
     </g>
     <g id="line2d_38">
      <g>
       <use xlink:href="#m88aac36916" x="197.272727" y="22.2" style="stroke: #000000"/>
      </g>
     </g>
    </g>
    <g id="xtick_20">
     <g id="line2d_39">
      <g>
       <use xlink:href="#m91fc791980" x="207.090909" y="161.7" style="stroke: #000000"/>
      </g>
     </g>
     <g id="line2d_40">
      <g>
       <use xlink:href="#m88aac36916" x="207.090909" y="22.2" style="stroke: #000000"/>
      </g>
     </g>
    </g>
    <g id="xtick_21">
     <g id="line2d_41">
      <g>
       <use xlink:href="#m91fc791980" x="216.909091" y="161.7" style="stroke: #000000"/>
      </g>
     </g>
     <g id="line2d_42">
      <g>
       <use xlink:href="#m88aac36916" x="216.909091" y="22.2" style="stroke: #000000"/>
      </g>
     </g>
    </g>
    <g id="xtick_22">
     <g id="line2d_43">
      <g>
       <use xlink:href="#m91fc791980" x="236.545455" y="161.7" style="stroke: #000000"/>
      </g>
     </g>
     <g id="line2d_44">
      <g>
       <use xlink:href="#m88aac36916" x="236.545455" y="22.2" style="stroke: #000000"/>
      </g>
     </g>
    </g>
    <g id="xtick_23">
     <g id="line2d_45">
      <g>
       <use xlink:href="#m91fc791980" x="246.363636" y="161.7" style="stroke: #000000"/>
      </g>
     </g>
     <g id="line2d_46">
      <g>
       <use xlink:href="#m88aac36916" x="246.363636" y="22.2" style="stroke: #000000"/>
      </g>
     </g>
    </g>
    <g id="xtick_24">
     <g id="line2d_47">
      <g>
       <use xlink:href="#m91fc791980" x="256.181818" y="161.7" style="stroke: #000000"/>
      </g>
     </g>
     <g id="line2d_48">
      <g>
       <use xlink:href="#m88aac36916" x="256.181818" y="22.2" style="stroke: #000000"/>
      </g>
     </g>
    </g>
    <g id="xtick_25">
     <g id="line2d_49">
      <g>
       <use xlink:href="#m91fc791980" x="275.818182" y="161.7" style="stroke: #000000"/>
      </g>
     </g>
     <g id="line2d_50">
      <g>
       <use xlink:href="#m88aac36916" x="275.818182" y="22.2" style="stroke: #000000"/>
      </g>
     </g>
    </g>
    <g id="text_7">
     <!-- Month -->
     <g transform="translate(140.512812 183.905) scale(0.12 -0.12)">
      <defs>
       <path id="Cmr10-4d" d="M 225 0 
L 225 225 
Q 884 225 884 603 
L 884 3944 
Q 884 4147 225 4147 
L 225 4372 
L 1434 4372 
Q 1513 4372 1538 4300 
L 2931 678 
L 4325 4300 
Q 4350 4372 4428 4372 
L 5638 4372 
L 5638 4147 
Q 4978 4147 4978 3944 
L 4978 428 
Q 4978 225 5638 225 
L 5638 0 
L 3775 0 
L 3775 225 
Q 4434 225 4434 428 
L 4434 4153 
L 2859 72 
Q 2831 0 2753 0 
Q 2672 0 2644 72 
L 1088 4103 
L 1088 603 
Q 1088 225 1747 225 
L 1747 0 
L 225 0 
z
" transform="scale(0.015625)"/>
       <path id="Cmr10-6f" d="M 1600 -72 
Q 1216 -72 887 123 
Q 559 319 368 647 
Q 178 975 178 1363 
Q 178 1656 283 1928 
Q 388 2200 583 2414 
Q 778 2628 1037 2748 
Q 1297 2869 1600 2869 
Q 1994 2869 2317 2661 
Q 2641 2453 2828 2104 
Q 3016 1756 3016 1363 
Q 3016 978 2825 648 
Q 2634 319 2307 123 
Q 1981 -72 1600 -72 
z
M 1600 116 
Q 2113 116 2284 487 
Q 2456 859 2456 1434 
Q 2456 1756 2422 1967 
Q 2388 2178 2272 2350 
Q 2200 2456 2089 2536 
Q 1978 2616 1854 2658 
Q 1731 2700 1600 2700 
Q 1400 2700 1220 2609 
Q 1041 2519 922 2350 
Q 803 2169 770 1951 
Q 738 1734 738 1434 
Q 738 1075 800 789 
Q 863 503 1052 309 
Q 1241 116 1600 116 
z
" transform="scale(0.015625)"/>
       <path id="Cmr10-6e" d="M 191 0 
L 191 225 
Q 409 225 550 259 
Q 691 294 691 428 
L 691 2175 
Q 691 2347 639 2423 
Q 588 2500 491 2517 
Q 394 2534 191 2534 
L 191 2759 
L 1119 2828 
L 1119 2203 
Q 1247 2478 1498 2653 
Q 1750 2828 2047 2828 
Q 2491 2828 2714 2615 
Q 2938 2403 2938 1966 
L 2938 428 
Q 2938 294 3078 259 
Q 3219 225 3438 225 
L 3438 0 
L 1972 0 
L 1972 225 
Q 2191 225 2331 259 
Q 2472 294 2472 428 
L 2472 1947 
Q 2472 2259 2381 2461 
Q 2291 2663 2009 2663 
Q 1638 2663 1398 2366 
Q 1159 2069 1159 1691 
L 1159 428 
Q 1159 294 1300 259 
Q 1441 225 1656 225 
L 1656 0 
L 191 0 
z
" transform="scale(0.015625)"/>
       <path id="Cmr10-74" d="M 653 769 
L 653 2534 
L 122 2534 
L 122 2700 
Q 541 2700 737 3090 
Q 934 3481 934 3938 
L 1119 3938 
L 1119 2759 
L 2022 2759 
L 2022 2534 
L 1119 2534 
L 1119 781 
Q 1119 516 1208 316 
Q 1297 116 1528 116 
Q 1747 116 1844 327 
Q 1941 538 1941 781 
L 1941 1159 
L 2125 1159 
L 2125 769 
Q 2125 569 2051 373 
Q 1978 178 1834 53 
Q 1691 -72 1484 -72 
Q 1100 -72 876 158 
Q 653 388 653 769 
z
" transform="scale(0.015625)"/>
       <path id="Cmr10-68" d="M 191 0 
L 191 225 
Q 409 225 550 259 
Q 691 294 691 428 
L 691 3788 
Q 691 3959 639 4036 
Q 588 4113 491 4130 
Q 394 4147 191 4147 
L 191 4372 
L 1141 4441 
L 1141 2241 
Q 1275 2506 1515 2667 
Q 1756 2828 2047 2828 
Q 2491 2828 2714 2615 
Q 2938 2403 2938 1966 
L 2938 428 
Q 2938 294 3078 259 
Q 3219 225 3438 225 
L 3438 0 
L 1972 0 
L 1972 225 
Q 2191 225 2331 259 
Q 2472 294 2472 428 
L 2472 1947 
Q 2472 2259 2381 2461 
Q 2291 2663 2009 2663 
Q 1638 2663 1398 2366 
Q 1159 2069 1159 1691 
L 1159 428 
Q 1159 294 1300 259 
Q 1441 225 1656 225 
L 1656 0 
L 191 0 
z
" transform="scale(0.015625)"/>
      </defs>
      <use xlink:href="#Cmr10-4d"/>
      <use xlink:href="#Cmr10-6f" transform="translate(91.601562 0)"/>
      <use xlink:href="#Cmr10-6e" transform="translate(141.601562 0)"/>
      <use xlink:href="#Cmr10-74" transform="translate(197.119141 0)"/>
      <use xlink:href="#Cmr10-68" transform="translate(235.9375 0)"/>
     </g>
    </g>
   </g>
   <g id="matplotlib.axis_2">
    <g id="ytick_1">
     <g id="line2d_51">
      <defs>
       <path id="mfcc1d0496f" d="M 0 0 
L 3 0 
" style="stroke: #000000"/>
      </defs>
      <g>
       <use xlink:href="#mfcc1d0496f" x="39.2" y="136.259575" style="stroke: #000000"/>
      </g>
     </g>
     <g id="line2d_52">
      <defs>
       <path id="ma25048d160" d="M 0 0 
L -3 0 
" style="stroke: #000000"/>
      </defs>
      <g>
       <use xlink:href="#ma25048d160" x="276.8" y="136.259575" style="stroke: #000000"/>
      </g>
     </g>
     <g id="text_8">
      <!-- $\mathdefault{276}$ -->
      <g transform="translate(23.2 139.729106) scale(0.1 -0.1)">
       <defs>
        <path id="Cmr10-37" d="M 1113 166 
Q 1113 522 1175 862 
Q 1238 1203 1358 1536 
Q 1478 1869 1648 2189 
Q 1819 2509 2022 2791 
L 2606 3603 
L 1875 3603 
Q 738 3603 703 3572 
Q 619 3469 544 2981 
L 359 2981 
L 569 4325 
L 756 4325 
L 756 4306 
Q 756 4191 1147 4156 
Q 1538 4122 1913 4122 
L 3103 4122 
L 3103 3956 
Q 3103 3950 3101 3947 
Q 3100 3944 3097 3938 
L 2216 2700 
Q 1891 2219 1809 1631 
Q 1728 1044 1728 166 
Q 1728 41 1637 -50 
Q 1547 -141 1422 -141 
Q 1294 -141 1203 -50 
Q 1113 41 1113 166 
z
" transform="scale(0.015625)"/>
       </defs>
       <use xlink:href="#Cmr10-32" transform="translate(0 0.421875)"/>
       <use xlink:href="#Cmr10-37" transform="translate(50 0.421875)"/>
       <use xlink:href="#Cmr10-36" transform="translate(100 0.421875)"/>
      </g>
     </g>
    </g>
    <g id="ytick_2">
     <g id="line2d_53">
      <g>
       <use xlink:href="#mfcc1d0496f" x="39.2" y="99.799982" style="stroke: #000000"/>
      </g>
     </g>
     <g id="line2d_54">
      <g>
       <use xlink:href="#ma25048d160" x="276.8" y="99.799982" style="stroke: #000000"/>
      </g>
     </g>
     <g id="text_9">
      <!-- $\mathdefault{278}$ -->
      <g transform="translate(23.2 103.269513) scale(0.1 -0.1)">
       <use xlink:href="#Cmr10-32" transform="translate(0 0.421875)"/>
       <use xlink:href="#Cmr10-37" transform="translate(50 0.421875)"/>
       <use xlink:href="#Cmr10-38" transform="translate(100 0.421875)"/>
      </g>
     </g>
    </g>
    <g id="ytick_3">
     <g id="line2d_55">
      <g>
       <use xlink:href="#mfcc1d0496f" x="39.2" y="63.340389" style="stroke: #000000"/>
      </g>
     </g>
     <g id="line2d_56">
      <g>
       <use xlink:href="#ma25048d160" x="276.8" y="63.340389" style="stroke: #000000"/>
      </g>
     </g>
     <g id="text_10">
      <!-- $\mathdefault{280}$ -->
      <g transform="translate(23.2 66.80992) scale(0.1 -0.1)">
       <use xlink:href="#Cmr10-32" transform="translate(0 0.390625)"/>
       <use xlink:href="#Cmr10-38" transform="translate(50 0.390625)"/>
       <use xlink:href="#Cmr10-30" transform="translate(100 0.390625)"/>
      </g>
     </g>
    </g>
    <g id="ytick_4">
     <g id="line2d_57">
      <g>
       <use xlink:href="#mfcc1d0496f" x="39.2" y="26.880796" style="stroke: #000000"/>
      </g>
     </g>
     <g id="line2d_58">
      <g>
       <use xlink:href="#ma25048d160" x="276.8" y="26.880796" style="stroke: #000000"/>
      </g>
     </g>
     <g id="text_11">
      <!-- $\mathdefault{282}$ -->
      <g transform="translate(23.2 30.350327) scale(0.1 -0.1)">
       <use xlink:href="#Cmr10-32" transform="translate(0 0.390625)"/>
       <use xlink:href="#Cmr10-38" transform="translate(50 0.390625)"/>
       <use xlink:href="#Cmr10-32" transform="translate(100 0.390625)"/>
      </g>
     </g>
    </g>
    <g id="ytick_5">
     <g id="line2d_59">
      <defs>
       <path id="m09bf4aa067" d="M 0 0 
L 1 0 
" style="stroke: #000000"/>
      </defs>
      <g>
       <use xlink:href="#m09bf4aa067" x="39.2" y="154.489372" style="stroke: #000000"/>
      </g>
     </g>
     <g id="line2d_60">
      <defs>
       <path id="m9e9df649af" d="M 0 0 
L -1 0 
" style="stroke: #000000"/>
      </defs>
      <g>
       <use xlink:href="#m9e9df649af" x="276.8" y="154.489372" style="stroke: #000000"/>
      </g>
     </g>
    </g>
    <g id="ytick_6">
     <g id="line2d_61">
      <g>
       <use xlink:href="#m09bf4aa067" x="39.2" y="145.374473" style="stroke: #000000"/>
      </g>
     </g>
     <g id="line2d_62">
      <g>
       <use xlink:href="#m9e9df649af" x="276.8" y="145.374473" style="stroke: #000000"/>
      </g>
     </g>
    </g>
    <g id="ytick_7">
     <g id="line2d_63">
      <g>
       <use xlink:href="#m09bf4aa067" x="39.2" y="127.144677" style="stroke: #000000"/>
      </g>
     </g>
     <g id="line2d_64">
      <g>
       <use xlink:href="#m9e9df649af" x="276.8" y="127.144677" style="stroke: #000000"/>
      </g>
     </g>
    </g>
    <g id="ytick_8">
     <g id="line2d_65">
      <g>
       <use xlink:href="#m09bf4aa067" x="39.2" y="118.029779" style="stroke: #000000"/>
      </g>
     </g>
     <g id="line2d_66">
      <g>
       <use xlink:href="#m9e9df649af" x="276.8" y="118.029779" style="stroke: #000000"/>
      </g>
     </g>
    </g>
    <g id="ytick_9">
     <g id="line2d_67">
      <g>
       <use xlink:href="#m09bf4aa067" x="39.2" y="108.91488" style="stroke: #000000"/>
      </g>
     </g>
     <g id="line2d_68">
      <g>
       <use xlink:href="#m9e9df649af" x="276.8" y="108.91488" style="stroke: #000000"/>
      </g>
     </g>
    </g>
    <g id="ytick_10">
     <g id="line2d_69">
      <g>
       <use xlink:href="#m09bf4aa067" x="39.2" y="90.685084" style="stroke: #000000"/>
      </g>
     </g>
     <g id="line2d_70">
      <g>
       <use xlink:href="#m9e9df649af" x="276.8" y="90.685084" style="stroke: #000000"/>
      </g>
     </g>
    </g>
    <g id="ytick_11">
     <g id="line2d_71">
      <g>
       <use xlink:href="#m09bf4aa067" x="39.2" y="81.570186" style="stroke: #000000"/>
      </g>
     </g>
     <g id="line2d_72">
      <g>
       <use xlink:href="#m9e9df649af" x="276.8" y="81.570186" style="stroke: #000000"/>
      </g>
     </g>
    </g>
    <g id="ytick_12">
     <g id="line2d_73">
      <g>
       <use xlink:href="#m09bf4aa067" x="39.2" y="72.455287" style="stroke: #000000"/>
      </g>
     </g>
     <g id="line2d_74">
      <g>
       <use xlink:href="#m9e9df649af" x="276.8" y="72.455287" style="stroke: #000000"/>
      </g>
     </g>
    </g>
    <g id="ytick_13">
     <g id="line2d_75">
      <g>
       <use xlink:href="#m09bf4aa067" x="39.2" y="54.225491" style="stroke: #000000"/>
      </g>
     </g>
     <g id="line2d_76">
      <g>
       <use xlink:href="#m9e9df649af" x="276.8" y="54.225491" style="stroke: #000000"/>
      </g>
     </g>
    </g>
    <g id="ytick_14">
     <g id="line2d_77">
      <g>
       <use xlink:href="#m09bf4aa067" x="39.2" y="45.110593" style="stroke: #000000"/>
      </g>
     </g>
     <g id="line2d_78">
      <g>
       <use xlink:href="#m9e9df649af" x="276.8" y="45.110593" style="stroke: #000000"/>
      </g>
     </g>
    </g>
    <g id="ytick_15">
     <g id="line2d_79">
      <g>
       <use xlink:href="#m09bf4aa067" x="39.2" y="35.995694" style="stroke: #000000"/>
      </g>
     </g>
     <g id="line2d_80">
      <g>
       <use xlink:href="#m9e9df649af" x="276.8" y="35.995694" style="stroke: #000000"/>
      </g>
     </g>
    </g>
    <g id="text_12">
     <!-- Average Temperature (K) -->
     <g transform="translate(16.2 160.604062) rotate(-90) scale(0.12 -0.12)">
      <defs>
       <path id="Cmr10-41" d="M 206 0 
L 206 225 
Q 778 225 909 603 
L 2253 4513 
Q 2272 4581 2356 4581 
L 2438 4581 
Q 2522 4581 2541 4513 
L 3944 428 
Q 4003 294 4170 259 
Q 4338 225 4588 225 
L 4588 0 
L 2803 0 
L 2803 225 
Q 3334 225 3334 397 
L 3334 428 
L 2988 1428 
L 1434 1428 
L 1147 603 
Q 1141 581 1141 538 
Q 1141 378 1292 301 
Q 1444 225 1619 225 
L 1619 0 
L 206 0 
z
M 1509 1650 
L 2913 1650 
L 2209 3694 
L 1509 1650 
z
" transform="scale(0.015625)"/>
       <path id="Cmr10-76" d="M 1563 0 
L 628 2350 
Q 569 2469 445 2501 
Q 322 2534 122 2534 
L 122 2759 
L 1466 2759 
L 1466 2534 
Q 1106 2534 1106 2381 
Q 1106 2356 1113 2344 
L 1831 538 
L 2478 2169 
Q 2497 2219 2497 2272 
Q 2497 2394 2405 2464 
Q 2313 2534 2188 2534 
L 2188 2759 
L 3250 2759 
L 3250 2534 
Q 3053 2534 2904 2443 
Q 2756 2353 2675 2175 
L 1813 0 
Q 1788 -72 1709 -72 
L 1663 -72 
Q 1584 -72 1563 0 
z
" transform="scale(0.015625)"/>
       <path id="Cmr10-65" d="M 1594 -72 
Q 1203 -72 876 133 
Q 550 338 364 680 
Q 178 1022 178 1403 
Q 178 1778 348 2115 
Q 519 2453 823 2661 
Q 1128 2869 1503 2869 
Q 1797 2869 2014 2770 
Q 2231 2672 2372 2497 
Q 2513 2322 2584 2084 
Q 2656 1847 2656 1563 
Q 2656 1478 2591 1478 
L 738 1478 
L 738 1409 
Q 738 878 952 497 
Q 1166 116 1650 116 
Q 1847 116 2014 203 
Q 2181 291 2304 447 
Q 2428 603 2472 781 
Q 2478 803 2495 820 
Q 2513 838 2534 838 
L 2591 838 
Q 2656 838 2656 756 
Q 2566 394 2266 161 
Q 1966 -72 1594 -72 
z
M 744 1638 
L 2203 1638 
Q 2203 1878 2136 2125 
Q 2069 2372 1912 2536 
Q 1756 2700 1503 2700 
Q 1141 2700 942 2361 
Q 744 2022 744 1638 
z
" transform="scale(0.015625)"/>
       <path id="Cmr10-72" d="M 166 0 
L 166 225 
Q 384 225 525 259 
Q 666 294 666 428 
L 666 2175 
Q 666 2347 614 2423 
Q 563 2500 466 2517 
Q 369 2534 166 2534 
L 166 2759 
L 1081 2828 
L 1081 2203 
Q 1184 2481 1375 2654 
Q 1566 2828 1838 2828 
Q 2028 2828 2178 2715 
Q 2328 2603 2328 2419 
Q 2328 2303 2245 2217 
Q 2163 2131 2041 2131 
Q 1922 2131 1837 2215 
Q 1753 2300 1753 2419 
Q 1753 2591 1875 2663 
L 1838 2663 
Q 1578 2663 1414 2475 
Q 1250 2288 1181 2009 
Q 1113 1731 1113 1478 
L 1113 428 
Q 1113 225 1734 225 
L 1734 0 
L 166 0 
z
" transform="scale(0.015625)"/>
       <path id="Cmr10-61" d="M 256 628 
Q 256 1009 556 1248 
Q 856 1488 1276 1586 
Q 1697 1684 2075 1684 
L 2075 1947 
Q 2075 2131 1994 2304 
Q 1913 2478 1759 2589 
Q 1606 2700 1422 2700 
Q 997 2700 775 2509 
Q 897 2509 976 2417 
Q 1056 2325 1056 2203 
Q 1056 2075 965 1984 
Q 875 1894 750 1894 
Q 622 1894 531 1984 
Q 441 2075 441 2203 
Q 441 2541 747 2705 
Q 1053 2869 1422 2869 
Q 1681 2869 1943 2758 
Q 2206 2647 2373 2440 
Q 2541 2234 2541 1959 
L 2541 519 
Q 2541 394 2594 289 
Q 2647 184 2759 184 
Q 2866 184 2917 290 
Q 2969 397 2969 519 
L 2969 928 
L 3156 928 
L 3156 519 
Q 3156 375 3081 245 
Q 3006 116 2879 39 
Q 2753 -38 2606 -38 
Q 2419 -38 2283 107 
Q 2147 253 2131 453 
Q 2013 213 1781 70 
Q 1550 -72 1288 -72 
Q 1044 -72 808 0 
Q 572 72 414 226 
Q 256 381 256 628 
z
M 775 628 
Q 775 403 940 250 
Q 1106 97 1331 97 
Q 1538 97 1706 200 
Q 1875 303 1975 481 
Q 2075 659 2075 856 
L 2075 1522 
Q 1784 1522 1479 1426 
Q 1175 1331 975 1128 
Q 775 925 775 628 
z
" transform="scale(0.015625)"/>
       <path id="Cmr10-67" d="M 178 -500 
Q 178 -272 343 -101 
Q 509 69 738 141 
Q 609 238 542 384 
Q 475 531 475 697 
Q 475 997 666 1228 
Q 372 1516 372 1888 
Q 372 2088 458 2263 
Q 544 2438 697 2566 
Q 850 2694 1037 2761 
Q 1225 2828 1422 2828 
Q 1803 2828 2106 2606 
Q 2238 2747 2417 2823 
Q 2597 2900 2791 2900 
Q 2928 2900 3015 2801 
Q 3103 2703 3103 2566 
Q 3103 2488 3043 2428 
Q 2984 2369 2906 2369 
Q 2825 2369 2765 2428 
Q 2706 2488 2706 2566 
Q 2706 2684 2784 2731 
Q 2453 2731 2216 2503 
Q 2331 2388 2401 2220 
Q 2472 2053 2472 1888 
Q 2472 1616 2322 1398 
Q 2172 1181 1926 1061 
Q 1681 941 1422 941 
Q 1072 941 781 1131 
Q 691 1006 691 850 
Q 691 681 802 554 
Q 913 428 1081 428 
L 1606 428 
Q 1988 428 2294 359 
Q 2600 291 2808 84 
Q 3016 -122 3016 -500 
Q 3016 -781 2778 -967 
Q 2541 -1153 2211 -1236 
Q 1881 -1319 1600 -1319 
Q 1316 -1319 984 -1236 
Q 653 -1153 415 -967 
Q 178 -781 178 -500 
z
M 538 -500 
Q 538 -716 713 -861 
Q 888 -1006 1134 -1076 
Q 1381 -1147 1600 -1147 
Q 1816 -1147 2062 -1076 
Q 2309 -1006 2482 -861 
Q 2656 -716 2656 -500 
Q 2656 -166 2350 -67 
Q 2044 31 1606 31 
L 1081 31 
Q 934 31 811 -39 
Q 688 -109 613 -236 
Q 538 -363 538 -500 
z
M 1422 1113 
Q 1966 1113 1966 1888 
Q 1966 2222 1850 2439 
Q 1734 2656 1422 2656 
Q 1109 2656 993 2439 
Q 878 2222 878 1888 
Q 878 1675 922 1503 
Q 966 1331 1084 1222 
Q 1203 1113 1422 1113 
z
" transform="scale(0.015625)"/>
       <path id="Cmr10-20" transform="scale(0.015625)"/>
       <path id="Cmr10-54" d="M 1081 0 
L 1081 225 
Q 1403 225 1706 261 
Q 2009 297 2009 428 
L 2009 3944 
Q 2009 4081 1932 4114 
Q 1856 4147 1684 4147 
L 1416 4147 
Q 888 4147 666 3916 
Q 550 3800 500 3545 
Q 450 3291 416 2906 
L 231 2906 
L 353 4372 
L 4263 4372 
L 4384 2906 
L 4197 2906 
Q 4159 3319 4114 3561 
Q 4069 3803 3950 3916 
Q 3725 4147 3200 4147 
L 2931 4147 
Q 2816 4147 2752 4137 
Q 2688 4128 2647 4083 
Q 2606 4038 2606 3944 
L 2606 428 
Q 2606 297 2909 261 
Q 3213 225 3531 225 
L 3531 0 
L 1081 0 
z
" transform="scale(0.015625)"/>
       <path id="Cmr10-6d" d="M 191 0 
L 191 225 
Q 409 225 550 259 
Q 691 294 691 428 
L 691 2175 
Q 691 2347 639 2423 
Q 588 2500 491 2517 
Q 394 2534 191 2534 
L 191 2759 
L 1119 2828 
L 1119 2203 
Q 1247 2478 1498 2653 
Q 1750 2828 2047 2828 
Q 2784 2828 2913 2228 
Q 3041 2497 3287 2662 
Q 3534 2828 3828 2828 
Q 4119 2828 4317 2734 
Q 4516 2641 4616 2448 
Q 4716 2256 4716 1966 
L 4716 428 
Q 4716 294 4858 259 
Q 5000 225 5216 225 
L 5216 0 
L 3750 0 
L 3750 225 
Q 3969 225 4109 259 
Q 4250 294 4250 428 
L 4250 1947 
Q 4250 2269 4159 2466 
Q 4069 2663 3788 2663 
Q 3419 2663 3178 2366 
Q 2938 2069 2938 1691 
L 2938 428 
Q 2938 294 3078 259 
Q 3219 225 3438 225 
L 3438 0 
L 1972 0 
L 1972 225 
Q 2191 225 2331 259 
Q 2472 294 2472 428 
L 2472 1947 
Q 2472 2259 2381 2461 
Q 2291 2663 2009 2663 
Q 1638 2663 1398 2366 
Q 1159 2069 1159 1691 
L 1159 428 
Q 1159 294 1300 259 
Q 1441 225 1656 225 
L 1656 0 
L 191 0 
z
" transform="scale(0.015625)"/>
       <path id="Cmr10-70" d="M 166 -1241 
L 166 -1019 
Q 384 -1019 525 -981 
Q 666 -944 666 -813 
L 666 2272 
Q 666 2447 541 2490 
Q 416 2534 166 2534 
L 166 2759 
L 1113 2828 
L 1113 2431 
Q 1288 2625 1520 2726 
Q 1753 2828 2016 2828 
Q 2394 2828 2697 2623 
Q 3000 2419 3170 2086 
Q 3341 1753 3341 1381 
Q 3341 994 3152 659 
Q 2963 325 2636 126 
Q 2309 -72 1919 -72 
Q 1453 -72 1131 306 
L 1131 -813 
Q 1131 -944 1273 -981 
Q 1416 -1019 1631 -1019 
L 1631 -1241 
L 166 -1241 
z
M 1131 622 
Q 1244 394 1444 245 
Q 1644 97 1881 97 
Q 2103 97 2273 215 
Q 2444 334 2559 534 
Q 2675 734 2729 954 
Q 2784 1175 2784 1381 
Q 2784 1638 2692 1936 
Q 2600 2234 2411 2439 
Q 2222 2644 1953 2644 
Q 1694 2644 1476 2511 
Q 1259 2378 1131 2150 
L 1131 622 
z
" transform="scale(0.015625)"/>
       <path id="Cmr10-75" d="M 691 763 
L 691 2175 
Q 691 2347 639 2423 
Q 588 2500 491 2517 
Q 394 2534 191 2534 
L 191 2759 
L 1159 2828 
L 1159 763 
Q 1159 513 1195 373 
Q 1231 234 1348 165 
Q 1466 97 1722 97 
Q 2066 97 2269 384 
Q 2472 672 2472 1038 
L 2472 2175 
Q 2472 2347 2419 2423 
Q 2366 2500 2270 2517 
Q 2175 2534 1972 2534 
L 1972 2759 
L 2938 2828 
L 2938 581 
Q 2938 413 2989 336 
Q 3041 259 3137 242 
Q 3234 225 3438 225 
L 3438 0 
L 2491 -72 
L 2491 469 
Q 2372 228 2159 78 
Q 1947 -72 1691 -72 
Q 1231 -72 961 123 
Q 691 319 691 763 
z
" transform="scale(0.015625)"/>
       <path id="Cmr10-28" d="M 1984 -1588 
Q 1628 -1306 1370 -942 
Q 1113 -578 948 -165 
Q 784 247 703 697 
Q 622 1147 622 1600 
Q 622 2059 703 2509 
Q 784 2959 951 3375 
Q 1119 3791 1378 4153 
Q 1638 4516 1984 4788 
Q 1984 4800 2016 4800 
L 2075 4800 
Q 2094 4800 2109 4783 
Q 2125 4766 2125 4744 
Q 2125 4716 2113 4703 
Q 1800 4397 1592 4047 
Q 1384 3697 1257 3301 
Q 1131 2906 1075 2482 
Q 1019 2059 1019 1600 
Q 1019 -434 2106 -1491 
Q 2125 -1509 2125 -1544 
Q 2125 -1559 2108 -1579 
Q 2091 -1600 2075 -1600 
L 2016 -1600 
Q 1984 -1600 1984 -1588 
z
" transform="scale(0.015625)"/>
       <path id="Cmr10-4b" d="M 197 0 
L 197 225 
Q 856 225 856 428 
L 856 3944 
Q 856 4147 197 4147 
L 197 4372 
L 2113 4372 
L 2113 4147 
Q 1453 4147 1453 3944 
L 1453 1869 
L 3431 3769 
Q 3513 3856 3513 3944 
Q 3513 4044 3427 4095 
Q 3341 4147 3231 4147 
L 3231 4372 
L 4622 4372 
L 4622 4147 
Q 4097 4147 3700 3769 
L 2566 2681 
L 3969 603 
Q 4141 350 4270 287 
Q 4400 225 4709 225 
L 4709 0 
L 3034 0 
L 3034 225 
Q 3188 225 3292 256 
Q 3397 288 3397 403 
Q 3397 481 3316 603 
L 2169 2303 
L 1453 1613 
L 1453 428 
Q 1453 225 2113 225 
L 2113 0 
L 197 0 
z
" transform="scale(0.015625)"/>
       <path id="Cmr10-29" d="M 416 -1600 
Q 359 -1600 359 -1544 
Q 359 -1516 372 -1503 
Q 1466 -434 1466 1600 
Q 1466 3634 384 4691 
Q 359 4706 359 4744 
Q 359 4766 376 4783 
Q 394 4800 416 4800 
L 475 4800 
Q 494 4800 506 4788 
Q 966 4425 1272 3906 
Q 1578 3388 1720 2800 
Q 1863 2213 1863 1600 
Q 1863 1147 1786 708 
Q 1709 269 1542 -157 
Q 1375 -584 1119 -945 
Q 863 -1306 506 -1588 
Q 494 -1600 475 -1600 
L 416 -1600 
z
" transform="scale(0.015625)"/>
      </defs>
      <use xlink:href="#Cmr10-41"/>
      <use xlink:href="#Cmr10-76" transform="translate(75 0)"/>
      <use xlink:href="#Cmr10-65" transform="translate(127.685547 0)"/>
      <use xlink:href="#Cmr10-72" transform="translate(172.070312 0)"/>
      <use xlink:href="#Cmr10-61" transform="translate(211.181641 0)"/>
      <use xlink:href="#Cmr10-67" transform="translate(261.181641 0)"/>
      <use xlink:href="#Cmr10-65" transform="translate(311.181641 0)"/>
      <use xlink:href="#Cmr10-20" transform="translate(355.566406 0)"/>
      <use xlink:href="#Cmr10-54" transform="translate(388.867188 0)"/>
      <use xlink:href="#Cmr10-65" transform="translate(461.083984 0)"/>
      <use xlink:href="#Cmr10-6d" transform="translate(505.46875 0)"/>
      <use xlink:href="#Cmr10-70" transform="translate(588.769531 0)"/>
      <use xlink:href="#Cmr10-65" transform="translate(644.287109 0)"/>
      <use xlink:href="#Cmr10-72" transform="translate(688.671875 0)"/>
      <use xlink:href="#Cmr10-61" transform="translate(727.783203 0)"/>
      <use xlink:href="#Cmr10-74" transform="translate(777.783203 0)"/>
      <use xlink:href="#Cmr10-75" transform="translate(816.601562 0)"/>
      <use xlink:href="#Cmr10-72" transform="translate(872.119141 0)"/>
      <use xlink:href="#Cmr10-65" transform="translate(911.230469 0)"/>
      <use xlink:href="#Cmr10-20" transform="translate(955.615234 0)"/>
      <use xlink:href="#Cmr10-28" transform="translate(988.916016 0)"/>
      <use xlink:href="#Cmr10-4b" transform="translate(1027.734375 0)"/>
      <use xlink:href="#Cmr10-29" transform="translate(1105.419922 0)"/>
     </g>
    </g>
   </g>
   <g id="FillBetweenPolyCollection_1"/>
   <g id="FillBetweenPolyCollection_2"/>
   <g id="FillBetweenPolyCollection_3"/>
   <g id="FillBetweenPolyCollection_4"/>
   <g id="FillBetweenPolyCollection_5"/>
   <g id="FillBetweenPolyCollection_6"/>
   <g id="FillBetweenPolyCollection_7"/>
   <g id="FillBetweenPolyCollection_8"/>
   <g id="FillBetweenPolyCollection_9"/>
   <g id="FillBetweenPolyCollection_10"/>
   <g id="FillBetweenPolyCollection_11"/>
   <g id="FillBetweenPolyCollection_12"/>
   <g id="FillBetweenPolyCollection_13"/>
   <g id="FillBetweenPolyCollection_14"/>
   <g id="FillBetweenPolyCollection_15"/>
   <g id="FillBetweenPolyCollection_16"/>
   <g id="FillBetweenPolyCollection_17"/>
   <g id="FillBetweenPolyCollection_18"/>
   <g id="FillBetweenPolyCollection_19"/>
   <g id="FillBetweenPolyCollection_20"/>
   <g id="FillBetweenPolyCollection_21"/>
   <g id="FillBetweenPolyCollection_22"/>
   <g id="FillBetweenPolyCollection_23"/>
   <g id="FillBetweenPolyCollection_24"/>
   <g id="FillBetweenPolyCollection_25"/>
   <g id="FillBetweenPolyCollection_26"/>
   <g id="FillBetweenPolyCollection_27"/>
   <g id="FillBetweenPolyCollection_28"/>
   <g id="FillBetweenPolyCollection_29"/>
   <g id="FillBetweenPolyCollection_30"/>
   <g id="FillBetweenPolyCollection_31"/>
   <g id="FillBetweenPolyCollection_32"/>
   <g id="FillBetweenPolyCollection_33"/>
   <g id="FillBetweenPolyCollection_34"/>
   <g id="FillBetweenPolyCollection_35"/>
   <g id="FillBetweenPolyCollection_36"/>
   <g id="FillBetweenPolyCollection_37"/>
   <g id="FillBetweenPolyCollection_38"/>
   <g id="FillBetweenPolyCollection_39"/>
   <g id="FillBetweenPolyCollection_40"/>
   <g id="FillBetweenPolyCollection_41"/>
   <g id="FillBetweenPolyCollection_42"/>
   <g id="FillBetweenPolyCollection_43"/>
   <g id="FillBetweenPolyCollection_44"/>
   <g id="FillBetweenPolyCollection_45"/>
   <g id="FillBetweenPolyCollection_46"/>
   <g id="FillBetweenPolyCollection_47"/>
   <g id="FillBetweenPolyCollection_48"/>
   <g id="FillBetweenPolyCollection_49"/>
   <g id="FillBetweenPolyCollection_50"/>
   <g id="FillBetweenPolyCollection_51"/>
   <g id="FillBetweenPolyCollection_52"/>
   <g id="FillBetweenPolyCollection_53"/>
   <g id="FillBetweenPolyCollection_54"/>
   <g id="FillBetweenPolyCollection_55"/>
   <g id="FillBetweenPolyCollection_56"/>
   <g id="FillBetweenPolyCollection_57"/>
   <g id="FillBetweenPolyCollection_58"/>
   <g id="FillBetweenPolyCollection_59"/>
   <g id="FillBetweenPolyCollection_60"/>
   <g id="FillBetweenPolyCollection_61"/>
   <g id="FillBetweenPolyCollection_62"/>
   <g id="FillBetweenPolyCollection_63"/>
   <g id="FillBetweenPolyCollection_64"/>
   <g id="FillBetweenPolyCollection_65"/>
   <g id="FillBetweenPolyCollection_66"/>
   <g id="FillBetweenPolyCollection_67"/>
   <g id="FillBetweenPolyCollection_68"/>
   <g id="FillBetweenPolyCollection_69"/>
   <g id="FillBetweenPolyCollection_70"/>
   <g id="FillBetweenPolyCollection_71"/>
   <g id="FillBetweenPolyCollection_72"/>
   <g id="FillBetweenPolyCollection_73"/>
   <g id="FillBetweenPolyCollection_74"/>
   <g id="FillBetweenPolyCollection_75"/>
   <g id="FillBetweenPolyCollection_76"/>
   <g id="FillBetweenPolyCollection_77"/>
   <g id="FillBetweenPolyCollection_78"/>
   <g id="FillBetweenPolyCollection_79"/>
   <g id="FillBetweenPolyCollection_80"/>
   <g id="FillBetweenPolyCollection_81"/>
   <g id="FillBetweenPolyCollection_82"/>
   <g id="FillBetweenPolyCollection_83"/>
   <g id="FillBetweenPolyCollection_84"/>
   <g id="FillBetweenPolyCollection_85"/>
   <g id="line2d_81">
    <path d="M 50 137.483301 
L 69.636364 147.713807 
L 89.272727 150.183844 
L 108.909091 118.080484 
L 128.545455 80.042763 
L 148.181818 67.219326 
L 167.818182 54.275308 
L 187.454545 58.311223 
L 207.090909 82.099377 
L 226.727273 110.569172 
L 246.363636 127.511496 
L 266 129.667373 
" clip-path="url(#pe02f5f566c)" style="fill: none; stroke: #f89c20; stroke-opacity: 0.5; stroke-width: 1.5; stroke-linecap: square"/>
   </g>
   <g id="line2d_82">
    <path d="M 50 142.542692 
L 69.636364 142.801971 
L 89.272727 146.284745 
L 108.909091 128.53124 
L 128.545455 86.433174 
L 148.181818 57.676515 
L 167.818182 53.744409 
L 187.454545 59.346429 
L 207.090909 90.639823 
L 226.727273 101.673717 
L 246.363636 127.302455 
L 266 130.388318 
" clip-path="url(#pe02f5f566c)" style="fill: none; stroke: #f89c20; stroke-opacity: 0.5; stroke-width: 1.5; stroke-linecap: square"/>
   </g>
   <g id="line2d_83">
    <path d="M 50 127.542534 
L 69.636364 144.249069 
L 89.272727 148.230093 
L 108.909091 124.452555 
L 128.545455 86.861066 
L 148.181818 64.205485 
L 167.818182 56.505714 
L 187.454545 65.617983 
L 207.090909 83.323714 
L 226.727273 104.418739 
L 246.363636 128.893311 
L 266 133.211834 
" clip-path="url(#pe02f5f566c)" style="fill: none; stroke: #f89c20; stroke-opacity: 0.5; stroke-width: 1.5; stroke-linecap: square"/>
   </g>
   <g id="line2d_84">
    <path d="M 50 138.568446 
L 69.636364 141.916201 
L 89.272727 141.145864 
L 108.909091 114.61672 
L 128.545455 83.59359 
L 148.181818 62.240356 
L 167.818182 61.261408 
L 187.454545 64.977517 
L 207.090909 78.712188 
L 226.727273 102.191813 
L 246.363636 123.853817 
L 266 131.102622 
" clip-path="url(#pe02f5f566c)" style="fill: none; stroke: #f89c20; stroke-opacity: 0.5; stroke-width: 1.5; stroke-linecap: square"/>
   </g>
   <g id="line2d_85">
    <path d="M 50 129.545582 
L 69.636364 137.166468 
L 89.272727 134.402089 
L 108.909091 120.429707 
L 128.545455 84.878749 
L 148.181818 57.371859 
L 167.818182 56.421571 
L 187.454545 60.556343 
L 207.090909 77.183499 
L 226.727273 101.253136 
L 246.363636 122.62015 
L 266 126.383595 
" clip-path="url(#pe02f5f566c)" style="fill: none; stroke: #f89c20; stroke-opacity: 0.5; stroke-width: 1.5; stroke-linecap: square"/>
   </g>
   <g id="line2d_86">
    <path d="M 50 134.026517 
L 69.636364 146.306885 
L 89.272727 145.118272 
L 108.909091 120.948263 
L 128.545455 88.046753 
L 148.181818 57.125904 
L 167.818182 58.923362 
L 187.454545 51.619515 
L 207.090909 81.460957 
L 226.727273 98.704022 
L 246.363636 127.631064 
L 266 133.487998 
" clip-path="url(#pe02f5f566c)" style="fill: none; stroke: #f89c20; stroke-opacity: 0.5; stroke-width: 1.5; stroke-linecap: square"/>
   </g>
   <g id="line2d_87">
    <path d="M 50 135.303675 
L 69.636364 148.338486 
L 89.272727 141.865608 
L 108.909091 121.137609 
L 128.545455 83.276438 
L 148.181818 58.795871 
L 167.818182 55.241874 
L 187.454545 63.362252 
L 207.090909 81.90458 
L 226.727273 113.570837 
L 246.363636 125.384328 
L 266 133.797332 
" clip-path="url(#pe02f5f566c)" style="fill: none; stroke: #f89c20; stroke-opacity: 0.5; stroke-width: 1.5; stroke-linecap: square"/>
   </g>
   <g id="line2d_88">
    <path d="M 50 131.135978 
L 69.636364 142.778051 
L 89.272727 137.899615 
L 108.909091 115.469259 
L 128.545455 86.925675 
L 148.181818 56.833566 
L 167.818182 54.024902 
L 187.454545 60.854484 
L 207.090909 80.293151 
L 226.727273 99.434771 
L 246.363636 118.141583 
L 266 130.108948 
" clip-path="url(#pe02f5f566c)" style="fill: none; stroke: #f89c20; stroke-opacity: 0.5; stroke-width: 1.5; stroke-linecap: square"/>
   </g>
   <g id="line2d_89">
    <path d="M 50 140.580737 
L 69.636364 147.90521 
L 89.272727 143.008916 
L 108.909091 121.607661 
L 128.545455 86.671342 
L 148.181818 66.07903 
L 167.818182 58.913225 
L 187.454545 62.690291 
L 207.090909 87.06195 
L 226.727273 101.025318 
L 246.363636 120.241466 
L 266 141.378185 
" clip-path="url(#pe02f5f566c)" style="fill: none; stroke: #f89c20; stroke-opacity: 0.5; stroke-width: 1.5; stroke-linecap: square"/>
   </g>
   <g id="line2d_90">
    <path d="M 50 138.546352 
L 69.636364 144.004573 
L 89.272727 138.40331 
L 108.909091 125.210206 
L 128.545455 86.17614 
L 148.181818 63.783698 
L 167.818182 51.136432 
L 187.454545 65.363444 
L 207.090909 75.391322 
L 226.727273 101.910068 
L 246.363636 118.724327 
L 266 121.473722 
" clip-path="url(#pe02f5f566c)" style="fill: none; stroke: #f89c20; stroke-opacity: 0.5; stroke-width: 1.5; stroke-linecap: square"/>
   </g>
   <g id="line2d_91">
    <path d="M 50 141.591573 
L 69.636364 151.895678 
L 89.272727 144.181765 
L 108.909091 128.11266 
L 128.545455 91.515897 
L 148.181818 58.451262 
L 167.818182 58.423557 
L 187.454545 65.839383 
L 207.090909 81.241376 
L 226.727273 103.353656 
L 246.363636 127.080709 
L 266 130.564571 
" clip-path="url(#pe02f5f566c)" style="fill: none; stroke: #f89c20; stroke-opacity: 0.5; stroke-width: 1.5; stroke-linecap: square"/>
   </g>
   <g id="line2d_92">
    <path d="M 50 145.9842 
L 69.636364 155.359091 
L 89.272727 145.638018 
L 108.909091 123.665122 
L 128.545455 77.813797 
L 148.181818 57.821192 
L 167.818182 65.593304 
L 187.454545 61.351803 
L 207.090909 80.763025 
L 226.727273 99.552252 
L 246.363636 122.817982 
L 266 130.134345 
" clip-path="url(#pe02f5f566c)" style="fill: none; stroke: #f89c20; stroke-opacity: 0.5; stroke-width: 1.5; stroke-linecap: square"/>
   </g>
   <g id="line2d_93">
    <path d="M 50 134.948184 
L 69.636364 142.674807 
L 89.272727 147.306308 
L 108.909091 124.433102 
L 128.545455 88.496812 
L 148.181818 61.692727 
L 167.818182 55.168335 
L 187.454545 67.606635 
L 207.090909 83.23961 
L 226.727273 105.91061 
L 246.363636 129.283937 
L 266 129.714632 
" clip-path="url(#pe02f5f566c)" style="fill: none; stroke: #f89c20; stroke-opacity: 0.5; stroke-width: 1.5; stroke-linecap: square"/>
   </g>
   <g id="line2d_94">
    <path d="M 50 138.983891 
L 69.636364 144.536301 
L 89.272727 149.696986 
L 108.909091 118.379629 
L 128.545455 78.087826 
L 148.181818 61.115281 
L 167.818182 53.009144 
L 187.454545 60.072814 
L 207.090909 83.555859 
L 226.727273 107.491892 
L 246.363636 119.693523 
L 266 127.579954 
" clip-path="url(#pe02f5f566c)" style="fill: none; stroke: #f89c20; stroke-opacity: 0.5; stroke-width: 1.5; stroke-linecap: square"/>
   </g>
   <g id="line2d_95">
    <path d="M 50 142.406944 
L 69.636364 148.188465 
L 89.272727 147.040496 
L 108.909091 123.948671 
L 128.545455 87.919749 
L 148.181818 64.490878 
L 167.818182 57.517529 
L 187.454545 67.948758 
L 207.090909 91.633301 
L 226.727273 103.293602 
L 246.363636 121.931555 
L 266 129.820682 
" clip-path="url(#pe02f5f566c)" style="fill: none; stroke: #f89c20; stroke-opacity: 0.5; stroke-width: 1.5; stroke-linecap: square"/>
   </g>
   <g id="line2d_96">
    <path d="M 50 134.973361 
L 69.636364 153.625515 
L 89.272727 150.645976 
L 108.909091 122.558299 
L 128.545455 91.336679 
L 148.181818 63.273955 
L 167.818182 60.314313 
L 187.454545 56.234431 
L 207.090909 82.072222 
L 226.727273 107.431754 
L 246.363636 131.63197 
L 266 137.817263 
" clip-path="url(#pe02f5f566c)" style="fill: none; stroke: #f89c20; stroke-opacity: 0.5; stroke-width: 1.5; stroke-linecap: square"/>
   </g>
   <g id="line2d_97">
    <path d="M 50 131.891745 
L 69.636364 142.274865 
L 89.272727 145.262303 
L 108.909091 125.745552 
L 128.545455 93.590701 
L 148.181818 62.90327 
L 167.818182 57.697876 
L 187.454545 68.754101 
L 207.090909 87.896307 
L 226.727273 116.330625 
L 246.363636 121.573954 
L 266 120.795182 
" clip-path="url(#pe02f5f566c)" style="fill: none; stroke: #f89c20; stroke-opacity: 0.5; stroke-width: 1.5; stroke-linecap: square"/>
   </g>
   <g id="line2d_98">
    <path d="M 50 137.780704 
L 69.636364 146.742547 
L 89.272727 145.841911 
L 108.909091 119.909732 
L 128.545455 86.037828 
L 148.181818 55.851309 
L 167.818182 57.326526 
L 187.454545 59.158357 
L 207.090909 84.888968 
L 226.727273 100.629587 
L 246.363636 122.729584 
L 266 130.544903 
" clip-path="url(#pe02f5f566c)" style="fill: none; stroke: #f89c20; stroke-opacity: 0.5; stroke-width: 1.5; stroke-linecap: square"/>
   </g>
   <g id="line2d_99">
    <path d="M 50 126.396309 
L 69.636364 139.620574 
L 89.272727 141.380073 
L 108.909091 126.702679 
L 128.545455 85.383183 
L 148.181818 64.570158 
L 167.818182 55.150458 
L 187.454545 65.054742 
L 207.090909 82.987411 
L 226.727273 105.771023 
L 246.363636 124.933556 
L 266 132.597058 
" clip-path="url(#pe02f5f566c)" style="fill: none; stroke: #f89c20; stroke-opacity: 0.5; stroke-width: 1.5; stroke-linecap: square"/>
   </g>
   <g id="line2d_100">
    <path d="M 50 134.422758 
L 69.636364 140.731647 
L 89.272727 134.739668 
L 108.909091 112.889102 
L 128.545455 83.64947 
L 148.181818 59.172264 
L 167.818182 55.243825 
L 187.454545 62.157344 
L 207.090909 87.069637 
L 226.727273 104.223013 
L 246.363636 120.713707 
L 266 128.047415 
" clip-path="url(#pe02f5f566c)" style="fill: none; stroke: #f89c20; stroke-opacity: 0.5; stroke-width: 1.5; stroke-linecap: square"/>
   </g>
   <g id="line2d_101">
    <path d="M 50 133.634913 
L 69.636364 141.779423 
L 89.272727 151.989262 
L 108.909091 124.388989 
L 128.545455 85.251987 
L 148.181818 61.888421 
L 167.818182 54.903217 
L 187.454545 63.124512 
L 207.090909 81.023851 
L 226.727273 104.370237 
L 246.363636 125.851538 
L 266 125.005723 
" clip-path="url(#pe02f5f566c)" style="fill: none; stroke: #f89c20; stroke-opacity: 0.5; stroke-width: 1.5; stroke-linecap: square"/>
   </g>
   <g id="line2d_102">
    <path d="M 50 134.833714 
L 69.636364 140.740625 
L 89.272727 145.627781 
L 108.909091 119.66569 
L 128.545455 86.596347 
L 148.181818 56.060389 
L 167.818182 55.64872 
L 187.454545 62.942548 
L 207.090909 77.9103 
L 226.727273 100.290654 
L 246.363636 121.127585 
L 266 135.587017 
" clip-path="url(#pe02f5f566c)" style="fill: none; stroke: #f89c20; stroke-opacity: 0.5; stroke-width: 1.5; stroke-linecap: square"/>
   </g>
   <g id="line2d_103">
    <path d="M 50 136.140776 
L 69.636364 140.755487 
L 89.272727 136.164892 
L 108.909091 119.798221 
L 128.545455 91.766559 
L 148.181818 59.402736 
L 167.818182 54.462009 
L 187.454545 61.554076 
L 207.090909 86.137666 
L 226.727273 106.162858 
L 246.363636 119.858514 
L 266 131.89415 
" clip-path="url(#pe02f5f566c)" style="fill: none; stroke: #f89c20; stroke-opacity: 0.5; stroke-width: 1.5; stroke-linecap: square"/>
   </g>
   <g id="line2d_104">
    <path d="M 50 137.836947 
L 69.636364 142.742636 
L 89.272727 151.453118 
L 108.909091 126.208887 
L 128.545455 88.469837 
L 148.181818 56.992037 
L 167.818182 53.803545 
L 187.454545 55.216165 
L 207.090909 76.46318 
L 226.727273 107.024 
L 246.363636 123.093811 
L 266 126.064436 
" clip-path="url(#pe02f5f566c)" style="fill: none; stroke: #f89c20; stroke-opacity: 0.5; stroke-width: 1.5; stroke-linecap: square"/>
   </g>
   <g id="line2d_105">
    <path d="M 50 140.093391 
L 69.636364 144.764897 
L 89.272727 149.682795 
L 108.909091 131.337513 
L 128.545455 97.576944 
L 148.181818 59.707323 
L 167.818182 50.784567 
L 187.454545 63.744999 
L 207.090909 91.035003 
L 226.727273 113.180126 
L 246.363636 127.11301 
L 266 132.959502 
" clip-path="url(#pe02f5f566c)" style="fill: none; stroke: #f89c20; stroke-opacity: 0.5; stroke-width: 1.5; stroke-linecap: square"/>
   </g>
   <g id="line2d_106">
    <path d="M 50 137.884106 
L 69.636364 144.940192 
L 89.272727 142.680537 
L 108.909091 122.921562 
L 128.545455 89.019632 
L 148.181818 62.495338 
L 167.818182 56.374724 
L 187.454545 60.168876 
L 207.090909 85.706685 
L 226.727273 108.373622 
L 246.363636 119.387293 
L 266 131.299473 
" clip-path="url(#pe02f5f566c)" style="fill: none; stroke: #f89c20; stroke-opacity: 0.5; stroke-width: 1.5; stroke-linecap: square"/>
   </g>
   <g id="line2d_107">
    <path d="M 50 144.993816 
L 69.636364 145.882029 
L 89.272727 142.204014 
L 108.909091 123.874612 
L 128.545455 91.141074 
L 148.181818 61.155537 
L 167.818182 51.680492 
L 187.454545 63.140902 
L 207.090909 80.051768 
L 226.727273 113.336709 
L 246.363636 123.168669 
L 266 124.135601 
" clip-path="url(#pe02f5f566c)" style="fill: none; stroke: #f89c20; stroke-opacity: 0.5; stroke-width: 1.5; stroke-linecap: square"/>
   </g>
   <g id="line2d_108">
    <path d="M 50 136.446862 
L 69.636364 150.506346 
L 89.272727 139.152626 
L 108.909091 120.723782 
L 128.545455 84.099729 
L 148.181818 60.650222 
L 167.818182 53.707232 
L 187.454545 60.34874 
L 207.090909 78.249515 
L 226.727273 99.97609 
L 246.363636 122.320379 
L 266 124.318568 
" clip-path="url(#pe02f5f566c)" style="fill: none; stroke: #f89c20; stroke-opacity: 0.5; stroke-width: 1.5; stroke-linecap: square"/>
   </g>
   <g id="line2d_109">
    <path d="M 50 138.756311 
L 69.636364 143.369804 
L 89.272727 135.423941 
L 108.909091 118.092637 
L 128.545455 87.124938 
L 148.181818 62.294258 
L 167.818182 57.553899 
L 187.454545 65.368429 
L 207.090909 89.341394 
L 226.727273 101.674631 
L 246.363636 128.903437 
L 266 136.768186 
" clip-path="url(#pe02f5f566c)" style="fill: none; stroke: #f89c20; stroke-opacity: 0.5; stroke-width: 1.5; stroke-linecap: square"/>
   </g>
   <g id="line2d_110">
    <path d="M 50 137.046527 
L 69.636364 145.228372 
L 89.272727 149.214719 
L 108.909091 119.136929 
L 128.545455 83.796629 
L 148.181818 58.477108 
L 167.818182 57.956428 
L 187.454545 63.759929 
L 207.090909 81.107729 
L 226.727273 101.351578 
L 246.363636 119.802671 
L 266 119.394921 
" clip-path="url(#pe02f5f566c)" style="fill: none; stroke: #f89c20; stroke-opacity: 0.5; stroke-width: 1.5; stroke-linecap: square"/>
   </g>
   <g id="line2d_111">
    <path d="M 50 132.457376 
L 69.636364 141.987903 
L 89.272727 138.803026 
L 108.909091 120.914376 
L 128.545455 88.682688 
L 148.181818 59.844828 
L 167.818182 55.629319 
L 187.454545 67.617543 
L 207.090909 79.618048 
L 226.727273 102.803555 
L 246.363636 122.969649 
L 266 129.005149 
" clip-path="url(#pe02f5f566c)" style="fill: none; stroke: #f89c20; stroke-opacity: 0.5; stroke-width: 1.5; stroke-linecap: square"/>
   </g>
   <g id="line2d_112">
    <path d="M 50 137.539888 
L 69.636364 139.557604 
L 89.272727 144.201329 
L 108.909091 115.722023 
L 128.545455 85.838497 
L 148.181818 63.158846 
L 167.818182 58.257427 
L 187.454545 61.032595 
L 207.090909 80.790711 
L 226.727273 108.912177 
L 246.363636 126.199964 
L 266 128.197541 
" clip-path="url(#pe02f5f566c)" style="fill: none; stroke: #f89c20; stroke-opacity: 0.5; stroke-width: 1.5; stroke-linecap: square"/>
   </g>
   <g id="line2d_113">
    <path d="M 50 136.222723 
L 69.636364 147.159353 
L 89.272727 141.172444 
L 108.909091 122.125467 
L 128.545455 87.918572 
L 148.181818 54.18149 
L 167.818182 51.639759 
L 187.454545 53.852342 
L 207.090909 78.738687 
L 226.727273 100.381213 
L 246.363636 122.98475 
L 266 126.666092 
" clip-path="url(#pe02f5f566c)" style="fill: none; stroke: #f89c20; stroke-opacity: 0.5; stroke-width: 1.5; stroke-linecap: square"/>
   </g>
   <g id="line2d_114">
    <path d="M 50 128.758253 
L 69.636364 142.406137 
L 89.272727 141.326569 
L 108.909091 116.014252 
L 128.545455 81.137586 
L 148.181818 58.761826 
L 167.818182 50.901244 
L 187.454545 63.093801 
L 207.090909 81.264249 
L 226.727273 104.608172 
L 246.363636 117.410207 
L 266 125.26567 
" clip-path="url(#pe02f5f566c)" style="fill: none; stroke: #f89c20; stroke-opacity: 0.5; stroke-width: 1.5; stroke-linecap: square"/>
   </g>
   <g id="line2d_115">
    <path d="M 50 126.590382 
L 69.636364 146.078411 
L 89.272727 143.508431 
L 108.909091 122.966299 
L 128.545455 90.836327 
L 148.181818 61.914341 
L 167.818182 60.015008 
L 187.454545 58.913641 
L 207.090909 86.89444 
L 226.727273 108.3874 
L 246.363636 126.796088 
L 266 130.939462 
" clip-path="url(#pe02f5f566c)" style="fill: none; stroke: #f89c20; stroke-opacity: 0.5; stroke-width: 1.5; stroke-linecap: square"/>
   </g>
   <g id="line2d_116">
    <path d="M 50 137.811068 
L 69.636364 139.934813 
L 89.272727 138.457096 
L 108.909091 121.659188 
L 128.545455 86.490493 
L 148.181818 64.970323 
L 167.818182 58.950906 
L 187.454545 69.116563 
L 207.090909 90.583357 
L 226.727273 113.098734 
L 246.363636 129.28766 
L 266 130.110211 
" clip-path="url(#pe02f5f566c)" style="fill: none; stroke: #f89c20; stroke-opacity: 0.5; stroke-width: 1.5; stroke-linecap: square"/>
   </g>
   <g id="line2d_117">
    <path d="M 50 133.175704 
L 69.636364 141.657692 
L 89.272727 143.368964 
L 108.909091 127.603882 
L 128.545455 99.710199 
L 148.181818 66.679318 
L 167.818182 56.779341 
L 187.454545 67.154939 
L 207.090909 83.578111 
L 226.727273 120.336979 
L 246.363636 129.172607 
L 266 129.744964 
" clip-path="url(#pe02f5f566c)" style="fill: none; stroke: #f89c20; stroke-opacity: 0.5; stroke-width: 1.5; stroke-linecap: square"/>
   </g>
   <g id="line2d_118">
    <path d="M 50 122.867581 
L 69.636364 145.624702 
L 89.272727 147.889649 
L 108.909091 121.145897 
L 128.545455 82.182337 
L 148.181818 55.476594 
L 167.818182 51.042858 
L 187.454545 56.053307 
L 207.090909 89.242002 
L 226.727273 112.807007 
L 246.363636 123.491326 
L 266 130.264995 
" clip-path="url(#pe02f5f566c)" style="fill: none; stroke: #f89c20; stroke-opacity: 0.5; stroke-width: 1.5; stroke-linecap: square"/>
   </g>
   <g id="line2d_119">
    <path d="M 50 138.016854 
L 69.636364 142.236089 
L 89.272727 142.703555 
L 108.909091 116.537523 
L 128.545455 84.63422 
L 148.181818 64.183914 
L 167.818182 53.64174 
L 187.454545 67.15487 
L 207.090909 84.190298 
L 226.727273 105.814223 
L 246.363636 116.902086 
L 266 126.545237 
" clip-path="url(#pe02f5f566c)" style="fill: none; stroke: #f89c20; stroke-opacity: 0.5; stroke-width: 1.5; stroke-linecap: square"/>
   </g>
   <g id="line2d_120">
    <path d="M 50 130.077555 
L 69.636364 150.653873 
L 89.272727 136.733517 
L 108.909091 116.331173 
L 128.545455 85.809646 
L 148.181818 58.392301 
L 167.818182 58.14943 
L 187.454545 58.762685 
L 207.090909 73.253602 
L 226.727273 100.260661 
L 246.363636 116.396463 
L 266 117.34867 
" clip-path="url(#pe02f5f566c)" style="fill: none; stroke: #f89c20; stroke-opacity: 0.5; stroke-width: 1.5; stroke-linecap: square"/>
   </g>
   <g id="line2d_121">
    <path d="M 50 124.588714 
L 69.636364 128.534363 
L 89.272727 126.457448 
L 108.909091 107.869591 
L 128.545455 72.368056 
L 148.181818 54.07188 
L 167.818182 44.036045 
L 187.454545 51.816312 
L 207.090909 75.348929 
L 226.727273 99.34776 
L 246.363636 119.42542 
L 266 127.552852 
" clip-path="url(#pe02f5f566c)" style="fill: none; stroke: #f89c20; stroke-opacity: 0.5; stroke-width: 1.5; stroke-linecap: square"/>
   </g>
   <g id="line2d_122">
    <path d="M 50 121.41908 
L 69.636364 127.724894 
L 89.272727 125.331191 
L 108.909091 108.270371 
L 128.545455 75.831316 
L 148.181818 51.771617 
L 167.818182 42.635525 
L 187.454545 47.842156 
L 207.090909 73.92967 
L 226.727273 98.54593 
L 246.363636 113.734002 
L 266 117.577911 
" clip-path="url(#pe02f5f566c)" style="fill: none; stroke: #f89c20; stroke-opacity: 0.5; stroke-width: 1.5; stroke-linecap: square"/>
   </g>
   <g id="line2d_123">
    <path d="M 50 132.845765 
L 69.636364 135.350034 
L 89.272727 140.509645 
L 108.909091 118.650006 
L 128.545455 81.478049 
L 148.181818 56.907425 
L 167.818182 46.916553 
L 187.454545 57.003042 
L 207.090909 78.709964 
L 226.727273 98.761624 
L 246.363636 114.477824 
L 266 115.772646 
" clip-path="url(#pe02f5f566c)" style="fill: none; stroke: #f89c20; stroke-opacity: 0.5; stroke-width: 1.5; stroke-linecap: square"/>
   </g>
   <g id="line2d_124">
    <path d="M 50 123.406633 
L 69.636364 132.187626 
L 89.272727 124.867286 
L 108.909091 109.766172 
L 128.545455 73.424567 
L 148.181818 55.93431 
L 167.818182 52.884599 
L 187.454545 51.706053 
L 207.090909 70.757249 
L 226.727273 102.482966 
L 246.363636 120.191927 
L 266 125.395156 
" clip-path="url(#pe02f5f566c)" style="fill: none; stroke: #f89c20; stroke-opacity: 0.5; stroke-width: 1.5; stroke-linecap: square"/>
   </g>
   <g id="line2d_125">
    <path d="M 50 125.022483 
L 69.636364 136.107908 
L 89.272727 132.371169 
L 108.909091 116.640708 
L 128.545455 75.141079 
L 148.181818 60.014973 
L 167.818182 49.830311 
L 187.454545 56.275724 
L 207.090909 74.367769 
L 226.727273 98.32401 
L 246.363636 117.319886 
L 266 118.152607 
" clip-path="url(#pe02f5f566c)" style="fill: none; stroke: #f89c20; stroke-opacity: 0.5; stroke-width: 1.5; stroke-linecap: square"/>
   </g>
   <g id="line2d_126">
    <path d="M 50 123.698441 
L 69.636364 142.573965 
L 89.272727 136.211539 
L 108.909091 114.104167 
L 128.545455 84.439924 
L 148.181818 53.770733 
L 167.818182 54.351881 
L 187.454545 53.569067 
L 207.090909 77.855246 
L 226.727273 104.981796 
L 246.363636 118.353812 
L 266 122.98778 
" clip-path="url(#pe02f5f566c)" style="fill: none; stroke: #f89c20; stroke-opacity: 0.5; stroke-width: 1.5; stroke-linecap: square"/>
   </g>
   <g id="line2d_127">
    <path d="M 50 131.226342 
L 69.636364 129.677157 
L 89.272727 134.146979 
L 108.909091 111.496485 
L 128.545455 79.687394 
L 148.181818 59.724963 
L 167.818182 51.266115 
L 187.454545 56.916137 
L 207.090909 85.097223 
L 226.727273 106.018474 
L 246.363636 113.752817 
L 266 121.250328 
" clip-path="url(#pe02f5f566c)" style="fill: none; stroke: #f89c20; stroke-opacity: 0.5; stroke-width: 1.5; stroke-linecap: square"/>
   </g>
   <g id="line2d_128">
    <path d="M 50 124.52753 
L 69.636364 137.008162 
L 89.272727 139.863412 
L 108.909091 114.699882 
L 128.545455 82.226716 
L 148.181818 50.972994 
L 167.818182 43.602773 
L 187.454545 58.946052 
L 207.090909 79.715664 
L 226.727273 103.974486 
L 246.363636 122.311371 
L 266 122.542198 
" clip-path="url(#pe02f5f566c)" style="fill: none; stroke: #f89c20; stroke-opacity: 0.5; stroke-width: 1.5; stroke-linecap: square"/>
   </g>
   <g id="line2d_129">
    <path d="M 50 124.787223 
L 69.636364 133.979301 
L 89.272727 130.063278 
L 108.909091 111.132737 
L 128.545455 74.510711 
L 148.181818 49.317467 
L 167.818182 47.177395 
L 187.454545 47.909426 
L 207.090909 70.78 
L 226.727273 98.33404 
L 246.363636 122.173931 
L 266 120.727381 
" clip-path="url(#pe02f5f566c)" style="fill: none; stroke: #f89c20; stroke-opacity: 0.5; stroke-width: 1.5; stroke-linecap: square"/>
   </g>
   <g id="line2d_130">
    <path d="M 50 137.075381 
L 69.636364 130.946872 
L 89.272727 131.833969 
L 108.909091 111.98034 
L 128.545455 85.286069 
L 148.181818 59.178742 
L 167.818182 46.896681 
L 187.454545 53.58962 
L 207.090909 70.808929 
L 226.727273 99.185686 
L 246.363636 121.110219 
L 266 117.489232 
" clip-path="url(#pe02f5f566c)" style="fill: none; stroke: #f89c20; stroke-opacity: 0.5; stroke-width: 1.5; stroke-linecap: square"/>
   </g>
   <g id="line2d_131">
    <path d="M 50 118.021165 
L 69.636364 129.076113 
L 89.272727 120.307685 
L 108.909091 101.199103 
L 128.545455 71.280909 
L 148.181818 52.677211 
L 167.818182 41.566772 
L 187.454545 52.685419 
L 207.090909 71.747088 
L 226.727273 95.991982 
L 246.363636 112.459137 
L 266 116.978547 
" clip-path="url(#pe02f5f566c)" style="fill: none; stroke: #f89c20; stroke-opacity: 0.5; stroke-width: 1.5; stroke-linecap: square"/>
   </g>
   <g id="line2d_132">
    <path d="M 50 121.930471 
L 69.636364 128.90675 
L 89.272727 133.472849 
L 108.909091 110.251937 
L 128.545455 77.525043 
L 148.181818 46.581122 
L 167.818182 40.913937 
L 187.454545 48.592248 
L 207.090909 66.450834 
L 226.727273 98.017722 
L 246.363636 112.840025 
L 266 116.367122 
" clip-path="url(#pe02f5f566c)" style="fill: none; stroke: #f89c20; stroke-opacity: 0.5; stroke-width: 1.5; stroke-linecap: square"/>
   </g>
   <g id="line2d_133">
    <path d="M 50 124.816789 
L 69.636364 132.987946 
L 89.272727 127.32417 
L 108.909091 112.938829 
L 128.545455 79.484099 
L 148.181818 53.644848 
L 167.818182 50.759437 
L 187.454545 58.871321 
L 207.090909 80.370444 
L 226.727273 102.208949 
L 246.363636 120.957368 
L 266 127.202957 
" clip-path="url(#pe02f5f566c)" style="fill: none; stroke: #f89c20; stroke-opacity: 0.5; stroke-width: 1.5; stroke-linecap: square"/>
   </g>
   <g id="line2d_134">
    <path d="M 50 128.664648 
L 69.636364 132.798583 
L 89.272727 138.668763 
L 108.909091 113.026749 
L 128.545455 79.273563 
L 148.181818 54.195915 
L 167.818182 49.106005 
L 187.454545 57.805457 
L 207.090909 80.690142 
L 226.727273 102.578817 
L 246.363636 119.699294 
L 266 127.615665 
" clip-path="url(#pe02f5f566c)" style="fill: none; stroke: #f89c20; stroke-opacity: 0.5; stroke-width: 1.5; stroke-linecap: square"/>
   </g>
   <g id="line2d_135">
    <path d="M 50 133.124745 
L 69.636364 143.06079 
L 89.272727 139.307435 
L 108.909091 111.86876 
L 128.545455 86.341337 
L 148.181818 51.509697 
L 167.818182 48.725293 
L 187.454545 58.549426 
L 207.090909 75.145256 
L 226.727273 97.632393 
L 246.363636 115.519249 
L 266 122.961825 
" clip-path="url(#pe02f5f566c)" style="fill: none; stroke: #f89c20; stroke-opacity: 0.5; stroke-width: 1.5; stroke-linecap: square"/>
   </g>
   <g id="line2d_136">
    <path d="M 50 128.5279 
L 69.636364 123.733879 
L 89.272727 134.514502 
L 108.909091 102.664057 
L 128.545455 80.464712 
L 148.181818 49.873405 
L 167.818182 42.569816 
L 187.454545 51.311166 
L 207.090909 75.494286 
L 226.727273 93.221014 
L 246.363636 110.989567 
L 266 122.717477 
" clip-path="url(#pe02f5f566c)" style="fill: none; stroke: #f89c20; stroke-opacity: 0.5; stroke-width: 1.5; stroke-linecap: square"/>
   </g>
   <g id="line2d_137">
    <path d="M 50 128.371564 
L 69.636364 129.709417 
L 89.272727 133.24533 
L 108.909091 108.366964 
L 128.545455 87.153536 
L 148.181818 57.470276 
L 167.818182 45.178336 
L 187.454545 44.417866 
L 207.090909 75.18876 
L 226.727273 103.284191 
L 246.363636 100.754163 
L 266 117.895506 
" clip-path="url(#pe02f5f566c)" style="fill: none; stroke: #f89c20; stroke-opacity: 0.5; stroke-width: 1.5; stroke-linecap: square"/>
   </g>
   <g id="line2d_138">
    <path d="M 50 132.026253 
L 69.636364 135.048574 
L 89.272727 124.968678 
L 108.909091 112.589671 
L 128.545455 81.324439 
L 148.181818 49.701647 
L 167.818182 53.211268 
L 187.454545 55.449577 
L 207.090909 72.546946 
L 226.727273 92.949733 
L 246.363636 104.255427 
L 266 117.731528 
" clip-path="url(#pe02f5f566c)" style="fill: none; stroke: #f89c20; stroke-opacity: 0.5; stroke-width: 1.5; stroke-linecap: square"/>
   </g>
   <g id="line2d_139">
    <path d="M 50 123.391733 
L 69.636364 130.633264 
L 89.272727 130.019291 
L 108.909091 109.463626 
L 128.545455 73.176198 
L 148.181818 42.361016 
L 167.818182 42.447227 
L 187.454545 46.833263 
L 207.090909 73.489896 
L 226.727273 100.244294 
L 246.363636 110.169827 
L 266 116.913194 
" clip-path="url(#pe02f5f566c)" style="fill: none; stroke: #f89c20; stroke-opacity: 0.5; stroke-width: 1.5; stroke-linecap: square"/>
   </g>
   <g id="line2d_140">
    <path d="M 50 125.563487 
L 69.636364 131.694733 
L 89.272727 135.813351 
L 108.909091 117.488747 
L 128.545455 82.867164 
L 148.181818 53.111251 
L 167.818182 47.772605 
L 187.454545 52.220029 
L 207.090909 70.816366 
L 226.727273 95.684559 
L 246.363636 110.977949 
L 266 118.009127 
" clip-path="url(#pe02f5f566c)" style="fill: none; stroke: #f89c20; stroke-opacity: 0.5; stroke-width: 1.5; stroke-linecap: square"/>
   </g>
   <g id="line2d_141">
    <path d="M 50 128.419422 
L 69.636364 128.631538 
L 89.272727 130.548749 
L 108.909091 110.078523 
L 128.545455 82.09041 
L 148.181818 52.818286 
L 167.818182 48.286696 
L 187.454545 51.920396 
L 207.090909 73.962109 
L 226.727273 99.098194 
L 246.363636 109.873449 
L 266 119.954024 
" clip-path="url(#pe02f5f566c)" style="fill: none; stroke: #f89c20; stroke-opacity: 0.5; stroke-width: 1.5; stroke-linecap: square"/>
   </g>
   <g id="line2d_142">
    <path d="M 50 125.742436 
L 69.636364 131.278868 
L 89.272727 136.283317 
L 108.909091 113.896995 
L 128.545455 76.524812 
L 148.181818 49.757156 
L 167.818182 42.946522 
L 187.454545 54.115103 
L 207.090909 68.166 
L 226.727273 93.928033 
L 246.363636 100.571436 
L 266 106.080931 
" clip-path="url(#pe02f5f566c)" style="fill: none; stroke: #f89c20; stroke-opacity: 0.5; stroke-width: 1.5; stroke-linecap: square"/>
   </g>
   <g id="line2d_143">
    <path d="M 50 116.142883 
L 69.636364 134.827004 
L 89.272727 118.17063 
L 108.909091 107.78213 
L 128.545455 69.526327 
L 148.181818 48.377086 
L 167.818182 42.190951 
L 187.454545 48.014329 
L 207.090909 65.811234 
L 226.727273 87.582934 
L 246.363636 107.154648 
L 266 115.663029 
" clip-path="url(#pe02f5f566c)" style="fill: none; stroke: #f89c20; stroke-opacity: 0.5; stroke-width: 1.5; stroke-linecap: square"/>
   </g>
   <g id="line2d_144">
    <path d="M 50 118.156239 
L 69.636364 132.716682 
L 89.272727 132.666282 
L 108.909091 110.065649 
L 128.545455 74.980294 
L 148.181818 54.912333 
L 167.818182 46.820725 
L 187.454545 46.269537 
L 207.090909 65.316378 
L 226.727273 87.418279 
L 246.363636 108.048498 
L 266 108.468665 
" clip-path="url(#pe02f5f566c)" style="fill: none; stroke: #f89c20; stroke-opacity: 0.5; stroke-width: 1.5; stroke-linecap: square"/>
   </g>
   <g id="line2d_145">
    <path d="M 50 122.165474 
L 69.636364 129.802178 
L 89.272727 130.428955 
L 108.909091 104.68722 
L 128.545455 81.29556 
L 148.181818 51.801569 
L 167.818182 55.194841 
L 187.454545 54.360074 
L 207.090909 67.254605 
L 226.727273 90.10859 
L 246.363636 108.552801 
L 266 114.651511 
" clip-path="url(#pe02f5f566c)" style="fill: none; stroke: #f89c20; stroke-opacity: 0.5; stroke-width: 1.5; stroke-linecap: square"/>
   </g>
   <g id="line2d_146">
    <path d="M 50 110.551153 
L 69.636364 122.771068 
L 89.272727 125.243315 
L 108.909091 106.865969 
L 128.545455 72.590321 
L 148.181818 47.269782 
L 167.818182 43.14134 
L 187.454545 48.645157 
L 207.090909 63.359441 
L 226.727273 82.927922 
L 246.363636 103.070873 
L 266 105.535233 
" clip-path="url(#pe02f5f566c)" style="fill: none; stroke: #f89c20; stroke-opacity: 0.5; stroke-width: 1.5; stroke-linecap: square"/>
   </g>
   <g id="line2d_147">
    <path d="M 50 113.860765 
L 69.636364 126.709407 
L 89.272727 127.846679 
L 108.909091 103.721983 
L 128.545455 74.201361 
L 148.181818 45.546893 
L 167.818182 47.694121 
L 187.454545 45.132413 
L 207.090909 67.907025 
L 226.727273 88.494871 
L 246.363636 101.080491 
L 266 111.405014 
" clip-path="url(#pe02f5f566c)" style="fill: none; stroke: #f89c20; stroke-opacity: 0.5; stroke-width: 1.5; stroke-linecap: square"/>
   </g>
   <g id="line2d_148">
    <path d="M 50 111.682206 
L 69.636364 126.54691 
L 89.272727 128.054556 
L 108.909091 98.929943 
L 128.545455 70.655777 
L 148.181818 45.123235 
L 167.818182 40.65232 
L 187.454545 47.432787 
L 207.090909 68.297036 
L 226.727273 86.0708 
L 246.363636 104.356876 
L 266 110.99378 
" clip-path="url(#pe02f5f566c)" style="fill: none; stroke: #f89c20; stroke-opacity: 0.5; stroke-width: 1.5; stroke-linecap: square"/>
   </g>
   <g id="line2d_149">
    <path d="M 50 127.490266 
L 69.636364 132.337597 
L 89.272727 125.367432 
L 108.909091 103.901232 
L 128.545455 75.290038 
L 148.181818 55.365588 
L 167.818182 43.367354 
L 187.454545 52.113344 
L 207.090909 65.481514 
L 226.727273 91.320336 
L 246.363636 103.729091 
L 266 112.048107 
" clip-path="url(#pe02f5f566c)" style="fill: none; stroke: #f89c20; stroke-opacity: 0.5; stroke-width: 1.5; stroke-linecap: square"/>
   </g>
   <g id="line2d_150">
    <path d="M 50 113.318264 
L 69.636364 129.514078 
L 89.272727 130.196684 
L 108.909091 110.585142 
L 128.545455 70.681131 
L 148.181818 48.562168 
L 167.818182 38.303876 
L 187.454545 50.140096 
L 207.090909 67.427416 
L 226.727273 85.601452 
L 246.363636 99.480734 
L 266 110.513265 
" clip-path="url(#pe02f5f566c)" style="fill: none; stroke: #f89c20; stroke-opacity: 0.5; stroke-width: 1.5; stroke-linecap: square"/>
   </g>
   <g id="line2d_151">
    <path d="M 50 116.603591 
L 69.636364 122.357191 
L 89.272727 121.529136 
L 108.909091 101.579762 
L 128.545455 67.939384 
L 148.181818 51.044139 
L 167.818182 46.189003 
L 187.454545 48.081982 
L 207.090909 66.318362 
L 226.727273 85.145677 
L 246.363636 103.522353 
L 266 114.467243 
" clip-path="url(#pe02f5f566c)" style="fill: none; stroke: #f89c20; stroke-opacity: 0.5; stroke-width: 1.5; stroke-linecap: square"/>
   </g>
   <g id="line2d_152">
    <path d="M 50 117.290391 
L 69.636364 126.511788 
L 89.272727 123.864712 
L 108.909091 102.846824 
L 128.545455 76.553644 
L 148.181818 49.303914 
L 167.818182 36.753246 
L 187.454545 41.977826 
L 207.090909 67.80402 
L 226.727273 86.121857 
L 246.363636 103.378138 
L 266 109.68219 
" clip-path="url(#pe02f5f566c)" style="fill: none; stroke: #f89c20; stroke-opacity: 0.5; stroke-width: 1.5; stroke-linecap: square"/>
   </g>
   <g id="line2d_153">
    <path d="M 50 118.212004 
L 69.636364 124.462019 
L 89.272727 125.611308 
L 108.909091 105.072433 
L 128.545455 70.800949 
L 148.181818 46.730086 
L 167.818182 45.223508 
L 187.454545 49.723725 
L 207.090909 65.224622 
L 226.727273 83.388535 
L 246.363636 97.576791 
L 266 110.091782 
" clip-path="url(#pe02f5f566c)" style="fill: none; stroke: #f89c20; stroke-opacity: 0.5; stroke-width: 1.5; stroke-linecap: square"/>
   </g>
   <g id="line2d_154">
    <path d="M 50 113.142471 
L 69.636364 132.774424 
L 89.272727 126.814873 
L 108.909091 105.528081 
L 128.545455 78.879701 
L 148.181818 44.666951 
L 167.818182 45.451017 
L 187.454545 44.520886 
L 207.090909 58.485903 
L 226.727273 89.391976 
L 246.363636 101.334094 
L 266 106.17045 
" clip-path="url(#pe02f5f566c)" style="fill: none; stroke: #f89c20; stroke-opacity: 0.5; stroke-width: 1.5; stroke-linecap: square"/>
   </g>
   <g id="line2d_155">
    <path d="M 50 115.378461 
L 69.636364 124.960194 
L 89.272727 123.34743 
L 108.909091 102.368008 
L 128.545455 69.28649 
L 148.181818 49.457682 
L 167.818182 45.985873 
L 187.454545 45.155677 
L 207.090909 61.885936 
L 226.727273 85.621183 
L 246.363636 105.556097 
L 266 108.966188 
" clip-path="url(#pe02f5f566c)" style="fill: none; stroke: #f89c20; stroke-opacity: 0.5; stroke-width: 1.5; stroke-linecap: square"/>
   </g>
   <g id="line2d_156">
    <path d="M 50 115.801341 
L 69.636364 122.048162 
L 89.272727 118.085621 
L 108.909091 100.430665 
L 128.545455 74.704356 
L 148.181818 47.595747 
L 167.818182 45.397821 
L 187.454545 47.49366 
L 207.090909 68.462265 
L 226.727273 79.019224 
L 246.363636 98.72587 
L 266 106.11843 
" clip-path="url(#pe02f5f566c)" style="fill: none; stroke: #f89c20; stroke-opacity: 0.5; stroke-width: 1.5; stroke-linecap: square"/>
   </g>
   <g id="line2d_157">
    <path d="M 50 106.109304 
L 69.636364 112.198836 
L 89.272727 114.504409 
L 108.909091 95.17164 
L 128.545455 64.471128 
L 148.181818 47.349193 
L 167.818182 39.200099 
L 187.454545 38.516914 
L 207.090909 60.904613 
L 226.727273 77.452955 
L 246.363636 86.287782 
L 266 100.566731 
" clip-path="url(#pe02f5f566c)" style="fill: none; stroke: #f89c20; stroke-opacity: 0.5; stroke-width: 1.5; stroke-linecap: square"/>
   </g>
   <g id="line2d_158">
    <path d="M 50 107.847821 
L 69.636364 114.29451 
L 89.272727 112.792559 
L 108.909091 97.876013 
L 128.545455 67.623712 
L 148.181818 48.389502 
L 167.818182 41.691079 
L 187.454545 44.628058 
L 207.090909 64.119405 
L 226.727273 77.142025 
L 246.363636 97.920008 
L 266 102.217524 
" clip-path="url(#pe02f5f566c)" style="fill: none; stroke: #f89c20; stroke-opacity: 0.5; stroke-width: 1.5; stroke-linecap: square"/>
   </g>
   <g id="line2d_159">
    <path d="M 50 111.799526 
L 69.636364 114.106647 
L 89.272727 121.318561 
L 108.909091 97.716014 
L 128.545455 65.756416 
L 148.181818 40.917297 
L 167.818182 39.062446 
L 187.454545 41.895231 
L 207.090909 65.127725 
L 226.727273 74.232047 
L 246.363636 100.090079 
L 266 102.602452 
" clip-path="url(#pe02f5f566c)" style="fill: none; stroke: #f89c20; stroke-opacity: 0.5; stroke-width: 1.5; stroke-linecap: square"/>
   </g>
   <g id="line2d_160">
    <path d="M 50 118.150665 
L 69.636364 119.553317 
L 89.272727 114.914316 
L 108.909091 95.163109 
L 128.545455 65.774378 
L 148.181818 44.101152 
L 167.818182 35.282119 
L 187.454545 41.511685 
L 207.090909 60.098546 
L 226.727273 76.908318 
L 246.363636 95.306529 
L 266 100.894743 
" clip-path="url(#pe02f5f566c)" style="fill: none; stroke: #f89c20; stroke-opacity: 0.5; stroke-width: 1.5; stroke-linecap: square"/>
   </g>
   <g id="line2d_161">
    <path d="M 50 109.496699 
L 69.636364 115.968238 
L 89.272727 119.759664 
L 108.909091 89.804637 
L 128.545455 61.695473 
L 148.181818 40.000971 
L 167.818182 36.090994 
L 187.454545 45.361315 
L 207.090909 56.405435 
L 226.727273 79.512101 
L 246.363636 84.771609 
L 266 104.933186 
" clip-path="url(#pe02f5f566c)" style="fill: none; stroke: #f89c20; stroke-opacity: 0.5; stroke-width: 1.5; stroke-linecap: square"/>
   </g>
   <g id="line2d_162">
    <path d="M 50 114.322386 
L 69.636364 127.341161 
L 89.272727 123.693981 
L 108.909091 103.842121 
L 128.545455 69.080465 
L 148.181818 49.390677 
L 167.818182 37.889768 
L 187.454545 46.066446 
L 207.090909 60.183484 
L 226.727273 81.274178 
L 246.363636 98.901895 
L 266 106.276094 
" clip-path="url(#pe02f5f566c)" style="fill: none; stroke: #f89c20; stroke-opacity: 0.5; stroke-width: 1.5; stroke-linecap: square"/>
   </g>
   <g id="line2d_163">
    <path d="M 50 113.483574 
L 69.636364 118.013732 
L 89.272727 115.748585 
L 108.909091 103.36743 
L 128.545455 69.6732 
L 148.181818 39.837478 
L 167.818182 35.458359 
L 187.454545 41.068447 
L 207.090909 60.563985 
L 226.727273 78.539554 
L 246.363636 104.632022 
L 266 106.178576 
" clip-path="url(#pe02f5f566c)" style="fill: none; stroke: #f89c20; stroke-opacity: 0.5; stroke-width: 1.5; stroke-linecap: square"/>
   </g>
   <g id="line2d_164">
    <path d="M 50 116.146077 
L 69.636364 121.551437 
L 89.272727 115.004341 
L 108.909091 98.129439 
L 128.545455 70.860738 
L 148.181818 38.744807 
L 167.818182 30.745414 
L 187.454545 36.622354 
L 207.090909 45.141681 
L 226.727273 74.194462 
L 246.363636 89.031374 
L 266 95.339074 
" clip-path="url(#pe02f5f566c)" style="fill: none; stroke: #f89c20; stroke-opacity: 0.5; stroke-width: 1.5; stroke-linecap: square"/>
   </g>
   <g id="line2d_165">
    <path d="M 50 110.509222 
L 69.636364 108.752977 
L 89.272727 114.72231 
L 108.909091 96.979153 
L 128.545455 61.889853 
L 148.181818 35.846705 
L 167.818182 28.540909 
L 187.454545 30.116822 
L 207.090909 53.200004 
L 226.727273 68.910193 
L 246.363636 89.387416 
L 266 96.425502 
" clip-path="url(#pe02f5f566c)" style="fill: none; stroke: #f89c20; stroke-opacity: 0.5; stroke-width: 1.5; stroke-linecap: square"/>
   </g>
   <g id="patch_3">
    <path d="M 39.2 161.7 
L 39.2 22.2 
" style="fill: none; stroke: #000000; stroke-width: 0.8; stroke-linejoin: miter; stroke-linecap: square"/>
   </g>
   <g id="patch_4">
    <path d="M 276.8 161.7 
L 276.8 22.2 
" style="fill: none; stroke: #000000; stroke-width: 0.8; stroke-linejoin: miter; stroke-linecap: square"/>
   </g>
   <g id="patch_5">
    <path d="M 39.2 161.7 
L 276.8 161.7 
" style="fill: none; stroke: #000000; stroke-width: 0.8; stroke-linejoin: miter; stroke-linecap: square"/>
   </g>
   <g id="patch_6">
    <path d="M 39.2 22.2 
L 276.8 22.2 
" style="fill: none; stroke: #000000; stroke-width: 0.8; stroke-linejoin: miter; stroke-linecap: square"/>
   </g>
   <g id="text_13">
    <!-- Monthly Average Temperature (1940-2024) -->
    <g transform="translate(43.701875 16.2) scale(0.12 -0.12)">
     <defs>
      <path id="Cmr10-6c" d="M 197 0 
L 197 225 
Q 416 225 556 259 
Q 697 294 697 428 
L 697 3788 
Q 697 3959 645 4036 
Q 594 4113 497 4130 
Q 400 4147 197 4147 
L 197 4372 
L 1147 4441 
L 1147 428 
Q 1147 294 1287 259 
Q 1428 225 1644 225 
L 1644 0 
L 197 0 
z
" transform="scale(0.015625)"/>
      <path id="Cmr10-79" d="M 441 -1050 
Q 563 -1147 709 -1147 
Q 1113 -1147 1369 -538 
L 1588 0 
L 628 2350 
Q 569 2469 447 2501 
Q 325 2534 122 2534 
L 122 2759 
L 1466 2759 
L 1466 2534 
Q 1113 2534 1113 2381 
Q 1113 2356 1119 2344 
L 1831 594 
L 2472 2169 
Q 2491 2219 2491 2278 
Q 2491 2356 2448 2414 
Q 2406 2472 2339 2503 
Q 2272 2534 2188 2534 
L 2188 2759 
L 3250 2759 
L 3250 2534 
Q 3053 2534 2904 2443 
Q 2756 2353 2675 2175 
L 1569 -538 
Q 1481 -744 1364 -917 
Q 1247 -1091 1078 -1202 
Q 909 -1313 709 -1313 
Q 475 -1313 298 -1158 
Q 122 -1003 122 -775 
Q 122 -656 203 -575 
Q 284 -494 403 -494 
Q 484 -494 548 -530 
Q 613 -566 648 -628 
Q 684 -691 684 -775 
Q 684 -878 615 -959 
Q 547 -1041 441 -1050 
z
" transform="scale(0.015625)"/>
      <path id="Cmr10-39" d="M 722 269 
Q 897 63 1331 63 
Q 1575 63 1786 228 
Q 1997 394 2113 634 
Q 2247 906 2284 1214 
Q 2322 1522 2322 1978 
Q 2213 1719 2008 1553 
Q 1803 1388 1538 1388 
Q 1166 1388 873 1589 
Q 581 1791 425 2120 
Q 269 2450 269 2822 
Q 269 3206 444 3539 
Q 619 3872 928 4067 
Q 1238 4263 1631 4263 
Q 2019 4263 2280 4052 
Q 2541 3841 2678 3508 
Q 2816 3175 2870 2803 
Q 2925 2431 2925 2069 
Q 2925 1575 2744 1061 
Q 2563 547 2202 203 
Q 1841 -141 1331 -141 
Q 953 -141 690 37 
Q 428 216 428 575 
Q 428 706 517 795 
Q 606 884 738 884 
Q 866 884 955 795 
Q 1044 706 1044 575 
Q 1044 450 953 359 
Q 863 269 738 269 
L 722 269 
z
M 1563 1556 
Q 1825 1556 1992 1732 
Q 2159 1909 2234 2171 
Q 2309 2434 2309 2694 
L 2309 2816 
L 2309 2841 
Q 2309 3322 2168 3700 
Q 2028 4078 1631 4078 
Q 1378 4078 1220 3967 
Q 1063 3856 988 3672 
Q 913 3488 892 3278 
Q 872 3069 872 2822 
Q 872 2459 906 2203 
Q 941 1947 1094 1751 
Q 1247 1556 1563 1556 
z
" transform="scale(0.015625)"/>
      <path id="Cmr10-2d" d="M 72 1184 
L 72 1581 
L 1766 1581 
L 1766 1184 
L 72 1184 
z
" transform="scale(0.015625)"/>
     </defs>
     <use xlink:href="#Cmr10-4d"/>
     <use xlink:href="#Cmr10-6f" transform="translate(91.601562 0)"/>
     <use xlink:href="#Cmr10-6e" transform="translate(141.601562 0)"/>
     <use xlink:href="#Cmr10-74" transform="translate(197.119141 0)"/>
     <use xlink:href="#Cmr10-68" transform="translate(235.9375 0)"/>
     <use xlink:href="#Cmr10-6c" transform="translate(291.455078 0)"/>
     <use xlink:href="#Cmr10-79" transform="translate(319.140625 0)"/>
     <use xlink:href="#Cmr10-20" transform="translate(371.826172 0)"/>
     <use xlink:href="#Cmr10-41" transform="translate(405.126953 0)"/>
     <use xlink:href="#Cmr10-76" transform="translate(480.126953 0)"/>
     <use xlink:href="#Cmr10-65" transform="translate(532.8125 0)"/>
     <use xlink:href="#Cmr10-72" transform="translate(577.197266 0)"/>
     <use xlink:href="#Cmr10-61" transform="translate(616.308594 0)"/>
     <use xlink:href="#Cmr10-67" transform="translate(666.308594 0)"/>
     <use xlink:href="#Cmr10-65" transform="translate(716.308594 0)"/>
     <use xlink:href="#Cmr10-20" transform="translate(760.693359 0)"/>
     <use xlink:href="#Cmr10-54" transform="translate(793.994141 0)"/>
     <use xlink:href="#Cmr10-65" transform="translate(866.210938 0)"/>
     <use xlink:href="#Cmr10-6d" transform="translate(910.595703 0)"/>
     <use xlink:href="#Cmr10-70" transform="translate(993.896484 0)"/>
     <use xlink:href="#Cmr10-65" transform="translate(1049.414062 0)"/>
     <use xlink:href="#Cmr10-72" transform="translate(1093.798828 0)"/>
     <use xlink:href="#Cmr10-61" transform="translate(1132.910156 0)"/>
     <use xlink:href="#Cmr10-74" transform="translate(1182.910156 0)"/>
     <use xlink:href="#Cmr10-75" transform="translate(1221.728516 0)"/>
     <use xlink:href="#Cmr10-72" transform="translate(1277.246094 0)"/>
     <use xlink:href="#Cmr10-65" transform="translate(1316.357422 0)"/>
     <use xlink:href="#Cmr10-20" transform="translate(1360.742188 0)"/>
     <use xlink:href="#Cmr10-28" transform="translate(1394.042969 0)"/>
     <use xlink:href="#Cmr10-31" transform="translate(1432.861328 0)"/>
     <use xlink:href="#Cmr10-39" transform="translate(1482.861328 0)"/>
     <use xlink:href="#Cmr10-34" transform="translate(1532.861328 0)"/>
     <use xlink:href="#Cmr10-30" transform="translate(1582.861328 0)"/>
     <use xlink:href="#Cmr10-2d" transform="translate(1632.861328 0)"/>
     <use xlink:href="#Cmr10-32" transform="translate(1666.162109 0)"/>
     <use xlink:href="#Cmr10-30" transform="translate(1716.162109 0)"/>
     <use xlink:href="#Cmr10-32" transform="translate(1766.162109 0)"/>
     <use xlink:href="#Cmr10-34" transform="translate(1816.162109 0)"/>
     <use xlink:href="#Cmr10-29" transform="translate(1866.162109 0)"/>
    </g>
   </g>
  </g>
 </g>
 <defs>
  <clipPath id="pe02f5f566c">
   <rect x="39.2" y="22.2" width="237.6" height="139.5"/>
  </clipPath>
 </defs>
</svg>
